<?xml version="1.0" encoding="utf-8"?>
<!-- Uploaded to: SVG Repo, www.svgrepo.com, Generator: SVG Repo Mixer Tools -->
<svg xmlns="http://www.w3.org/2000/svg" xmlns:xlink="http://www.w3.org/1999/xlink" viewBox="0 0 1200 1200" width="1200" height="1200" preserveAspectRatio="xMidYMid meet" style="width: 100%; height: 100%; transform: translate3d(0px, 0px, 0px); content-visibility: visible;" id="Growth Analysis"><defs><clipPath id="__lottie_element_20562"><rect width="1200" height="1200" x="0" y="0"/></clipPath><clipPath id="__lottie_element_20564"><path d="M0,0 L1200,0 L1200,1200 L0,1200z"/></clipPath><clipPath id="__lottie_element_20568"><path d="M0,0 L1200,0 L1200,1200 L0,1200z"/></clipPath><linearGradient id="__lottie_element_20574" spreadMethod="pad" gradientUnits="userSpaceOnUse" x1="-8" y1="-222" x2="-6" y2="118"><stop offset="0%" stop-color="rgb(105,171,252)"/><stop offset="50%" stop-color="rgb(180,181,253)"/><stop offset="100%" stop-color="rgb(255,255,255)"/></linearGradient><linearGradient id="__lottie_element_20581" spreadMethod="pad" gradientUnits="userSpaceOnUse" x1="-462" y1="0" x2="472" y2="0"><stop offset="0%" stop-color="rgb(105,171,252)"/><stop offset="50%" stop-color="rgb(93,163,249)"/><stop offset="100%" stop-color="rgb(85,158,247)"/></linearGradient><linearGradient id="__lottie_element_20594" spreadMethod="pad" gradientUnits="userSpaceOnUse" x1="-121.5" y1="0" x2="50" y2="1"><stop offset="0%" stop-color="rgb(105,171,252)"/><stop offset="50%" stop-color="rgb(180,181,253)"/><stop offset="100%" stop-color="rgb(255,255,255)"/></linearGradient><linearGradient id="__lottie_element_20595" spreadMethod="pad" gradientUnits="userSpaceOnUse" x1="81.5" y1="0.5" x2="-59.5" y2="4.5"><stop offset="0%" stop-color="rgb(105,171,252)"/><stop offset="50%" stop-color="rgb(180,181,253)"/><stop offset="100%" stop-color="rgb(255,255,255)"/></linearGradient><linearGradient id="__lottie_element_20596" spreadMethod="pad" gradientUnits="userSpaceOnUse" x1="-25.5" y1="0" x2="30.5" y2="0"><stop offset="0%" stop-color="rgb(22,127,252)"/><stop offset="50%" stop-color="rgb(50,53,220)"/><stop offset="100%" stop-color="rgb(48,50,192)"/></linearGradient></defs><g clip-path="url(#__lottie_element_20562)"><g clip-path="url(#__lottie_element_20564)" transform="matrix(1,0,0,1,0,0)" opacity="1" style="display: block;"><g transform="matrix(1,0,0,1,0,0)" opacity="1" style="display: block;"><g opacity="1" transform="matrix(1,0,0,1,623.218994140625,891.22802734375)"><path fill="url(#__lottie_element_20574)" fill-opacity="1" d=" M380.1830139160156,-64.06099700927734 C343.18798828125,-90.5989990234375 300.52099609375,-63.14799880981445 274.90301513671875,-41.29800033569336 C195.74899291992188,-93.58300018310547 95.51100158691406,-112.3489990234375 10.87600040435791,-17.99799919128418 C8.206000328063965,-115.5979995727539 -111.33799743652344,-131.77699279785156 -130.45199584960938,-37.01599884033203 C-167.77999877929688,-119.61199951171875 -287.1409912109375,-121.83399963378906 -327.5060119628906,-40.66400146484375 C-347.01800537109375,-60.0880012512207 -371.8659973144531,-69.27899932861328 -391.79998779296875,-61.5359992980957 C-424.156005859375,-48.96799850463867 -430.4230041503906,3.1080000400543213 -421.3320007324219,36.33000183105469 C-411.37200927734375,72.7249984741211 -379.3139953613281,99.89099884033203 -339.4739990234375,106.73500061035156 C-181.64300537109375,121.68399810791016 -61.236000061035156,131.7760009765625 117.11299896240234,116.50800323486328 C223.37399291992188,116.50800323486328 375.5880126953125,79.8479995727539 375.5880126953125,79.8479995727539 C375.5880126953125,79.8479995727539 430.4230041503906,-28.020999908447266 380.1830139160156,-64.06099700927734z"/></g></g><g transform="matrix(1,0,0,1,0,0)" opacity="1" style="display: block;"><g opacity="1" transform="matrix(0.9856594800949097,0.16874650120735168,-0.16874650120735168,0.9856594800949097,168.5869903564453,-34.25250244140625)"><g opacity="1" transform="matrix(1,0,0,1,269.44000244140625,876.8159790039062)"><path fill="rgb(25,25,25)" fill-opacity="1" d=" M18.628999710083008,98.197998046875 C-9.454999923706055,45.10100173950195 -17.013999938964844,-0.7739999890327454 -17.016000747680664,-34.819000244140625 C-17.016000747680664,-54.7599983215332 -14.420000076293945,-70.64199829101562 -11.829000473022461,-81.52899932861328 C-10.532999992370605,-86.97200012207031 -9.23799991607666,-91.16600036621094 -8.270000457763672,-93.99400329589844 C-7.785999774932861,-95.40799713134766 -7.382999897003174,-96.48100280761719 -7.103000164031982,-97.1969985961914 C-6.9629998207092285,-97.55500030517578 -6.853000164031982,-97.8239974975586 -6.7789998054504395,-98.00199890136719 C-6.742000102996826,-98.09100341796875 -6.714000225067139,-98.15699768066406 -6.696000099182129,-98.20099639892578 C-6.696000099182129,-98.20099639892578 -6.675000190734863,-98.2490005493164 -6.675000190734863,-98.2490005493164 C-6.675000190734863,-98.2490005493164 -6.669000148773193,-98.26200103759766 -6.669000148773193,-98.26200103759766 C-6.464000225067139,-98.7300033569336 -6.677000045776367,-99.2760009765625 -7.144999980926514,-99.48200225830078 C-7.61299991607666,-99.68699645996094 -8.159000396728516,-99.4739990234375 -8.364999771118164,-99.00499725341797 C-8.402000427246094,-98.91899871826172 -18.865999221801758,-75.0250015258789 -18.867000579833984,-34.819000244140625 C-18.868000030517578,-0.5 -11.236000061035156,45.69900131225586 16.993000030517578,99.06300354003906 C17.23200035095215,99.51499938964844 17.79199981689453,99.68699645996094 18.243999481201172,99.4489974975586 C18.69499969482422,99.20999908447266 18.868000030517578,98.64900207519531 18.628999710083008,98.197998046875z"/></g><g opacity="1" transform="matrix(0.48169004917144775,0.8763416409492493,-0.8763416409492493,0.48169004917144775,800.890380859375,158.06451416015625)"><g opacity="1" transform="matrix(1,0,0,1,266.8219909667969,756.0919799804688)"><path fill="rgb(17,119,34)" fill-opacity="1" d=" M55.571998596191406,-4.609000205993652 C53.86600112915039,4.209000110626221 45.17499923706055,9.78600025177002 36.167999267578125,7.829999923706055 C45.17499923706055,9.78600025177002 51.08700180053711,18.520999908447266 49.374000549316406,27.340999603271484 C47.66299819946289,36.16699981689453 38.97200012207031,41.73699951171875 29.966999053955078,39.78799819946289 C26.69300079345703,39.077999114990234 21.437999725341797,33.81999969482422 19.19700050354004,31.63599967956543 C21.73699951171875,35.2400016784668 25.26099967956543,43.4370002746582 24.378000259399414,47.987998962402344 C22.937000274658203,55.42900085449219 16.55900001525879,60.584999084472656 9.197999954223633,60.91600036621094 C7.760000228881836,60.979000091552734 6.289999961853027,60.862998962402344 4.804999828338623,60.54100036621094 C3.321000099182129,60.220001220703125 1.9249999523162842,59.7140007019043 0.6259999871253967,59.05799865722656 C-4.730000019073486,56.34700012207031 -8.32699966430664,51.02899932861328 -8.763999938964844,45.16999816894531 C-11.352999687194824,50.374000549316406 -16.63800048828125,53.766998291015625 -22.56999969482422,54.03200149536133 C-24.006999969482422,54.09299850463867 -25.47800064086914,53.97800064086914 -26.961999893188477,53.65700149536133 C-28.445999145507812,53.334999084472656 -29.843000411987305,52.82899856567383 -31.141000747680664,52.172000885009766 C-37.78900146484375,48.810001373291016 -41.72700119018555,41.426998138427734 -40.2859992980957,33.986000061035156 C-39.404998779296875,29.42799949645996 -31.889999389648438,23.389999389648438 -28.2189998626709,21.128000259399414 C-31.08300018310547,22.20199966430664 -39.09199905395508,24.827999114990234 -42.37200164794922,24.118999481201172 C-51.37699890136719,22.170000076293945 -57.28900146484375,13.4350004196167 -55.57899856567383,4.607999801635742 C-53.867000579833984,-4.211999893188477 -45.176998138427734,-9.788000106811523 -36.16899871826172,-7.833000183105469 C-45.176998138427734,-9.788000106811523 -51.09400177001953,-18.52199935913086 -49.38199996948242,-27.340999603271484 C-47.67100143432617,-36.167999267578125 -38.97800064086914,-41.737998962402344 -29.972999572753906,-39.790000915527344 C-26.694000244140625,-39.08000183105469 -22.142000198364258,-35.874000549316406 -19.90399932861328,-33.696998596191406 C-22.44300079345703,-37.29899978637695 -25.267000198364258,-43.4370002746582 -24.382999420166016,-47.98899841308594 C-22.93600082397461,-55.43199920654297 -16.566999435424805,-60.58700180053711 -9.206000328063965,-60.917999267578125 C-7.76800012588501,-60.979000091552734 -6.296999931335449,-60.86399841308594 -4.813000202178955,-60.542999267578125 C-3.3289999961853027,-60.22100067138672 -1.9329999685287476,-59.71500015258789 -0.6340000033378601,-59.05799865722656 C4.7220001220703125,-56.347999572753906 8.321000099182129,-51.029998779296875 8.763999938964844,-45.17300033569336 C11.347000122070312,-50.375999450683594 16.63800048828125,-53.76900100708008 22.569000244140625,-54.034000396728516 C24.006999969482422,-54.09600067138672 25.47800064086914,-53.97999954223633 26.961999893188477,-53.659000396728516 C28.445999145507812,-53.3380012512207 29.841999053955078,-52.832000732421875 31.141000747680664,-52.17499923706055 C37.78200149536133,-48.81100082397461 41.72600173950195,-41.42900085449219 40.27899932861328,-33.986000061035156 C39.39699935913086,-29.42799949645996 34.33100128173828,-25.047000885009766 30.65999984741211,-22.785999298095703 C33.53099822998047,-23.860000610351562 39.09199905395508,-24.83099937438965 42.3650016784668,-24.118999481201172 C51.369998931884766,-22.17099952697754 57.28900146484375,-13.437000274658203 55.571998596191406,-4.609000205993652z"/></g><g opacity="1" transform="matrix(1,0,0,1,248.71200561523438,774.7239990234375)"><path fill="rgb(25,25,25)" fill-opacity="1" d=" M18.60700035095215,-18.996000289916992 C18.457000732421875,-19.202999114990234 18.195999145507812,-19.295000076293945 17.948999404907227,-19.229000091552734 C14.788000106811523,-18.39299964904785 11.668999671936035,-17.99799919128418 8.583000183105469,-17.99799919128418 C-0.4000000059604645,-17.99799919128418 -9.130999565124512,-21.347999572753906 -17.722999572753906,-26.982999801635742 C-18.007999420166016,-27.170000076293945 -18.389999389648438,-27.090999603271484 -18.57699966430664,-26.805999755859375 C-18.763999938964844,-26.520000457763672 -18.68600082397461,-26.138999938964844 -18.399999618530273,-25.951000213623047 C-9.682000160217285,-20.231000900268555 -0.7149999737739563,-16.764999389648438 8.583000183105469,-16.764999389648438 C11.293999671936035,-16.764999389648438 14.034000396728516,-17.062000274658203 16.79599952697754,-17.68199920654297 C13.788999557495117,-12.642000198364258 11.770000457763672,-7.089000225067139 10.486000061035156,-1.1640000343322754 C9.092000007629395,5.269999980926514 8.5600004196167,12.142000198364258 8.559000015258789,19.283000946044922 C8.559000015258789,21.683000564575195 8.619000434875488,24.11199951171875 8.727999687194824,26.56599998474121 C8.741999626159668,26.9060001373291 9.029999732971191,27.170000076293945 9.371000289916992,27.155000686645508 C9.711000442504883,27.141000747680664 9.975000381469727,26.85300064086914 9.960000038146973,26.511999130249023 C9.852999687194824,24.072999954223633 9.793000221252441,21.660999298095703 9.793000221252441,19.283000946044922 C9.793000221252441,12.20199966430664 10.321999549865723,5.415999889373779 11.690999984741211,-0.9020000100135803 C13.060999870300293,-7.2230000495910645 15.270000457763672,-13.071999549865723 18.628000259399414,-18.299999237060547 C18.764999389648438,-18.514999389648438 18.756999969482422,-18.790000915527344 18.60700035095215,-18.996000289916992z"/></g><g opacity="1" transform="matrix(1,0,0,1,284.8630065917969,737.4099731445312)"><path fill="rgb(25,25,25)" fill-opacity="1" d=" M18.1299991607666,25.89900016784668 C11.282999992370605,25.85700035095215 4.699999809265137,25.43600082397461 -1.3580000400543213,24.26799964904785 C-7.203000068664551,23.141000747680664 -12.553999900817871,21.315000534057617 -17.202999114990234,18.474000930786133 C-11.309000015258789,8.51200008392334 -8.225000381469727,-3.3310000896453857 -8.22599983215332,-17.202999114990234 C-8.22599983215332,-20.219999313354492 -8.371000289916992,-23.333999633789062 -8.664999961853027,-26.54599952697754 C-8.696000099182129,-26.885000228881836 -8.996000289916992,-27.135000228881836 -9.336000442504883,-27.104999542236328 C-9.675000190734863,-27.073999404907227 -9.925000190734863,-26.773000717163086 -9.894000053405762,-26.43400001525879 C-9.602999687194824,-23.256999969482422 -9.460000038146973,-20.180999755859375 -9.460000038146973,-17.202999114990234 C-9.461000442504883,-3.2690000534057617 -12.60200023651123,8.503000259399414 -18.570999145507812,18.36199951171875 C-18.7450008392334,18.64900016784668 -18.656999588012695,19.023000717163086 -18.374000549316406,19.202999114990234 C-13.440999984741211,22.332000732421875 -7.757999897003174,24.291000366210938 -1.5920000076293945,25.479999542236328 C4.576000213623047,26.66900062561035 11.229999542236328,27.089000701904297 18.121999740600586,27.132999420166016 C18.46299934387207,27.135000228881836 18.740999221801758,26.861000061035156 18.743000030517578,26.520000457763672 C18.7450008392334,26.179000854492188 18.47100067138672,25.900999069213867 18.1299991607666,25.89900016784668z"/></g></g></g><g opacity="1" transform="matrix(0.982656717300415,0.18543407320976257,-0.18543407320976257,0.982656717300415,177.9808807373047,-42.95733642578125)"><g opacity="1" transform="matrix(1,0,0,1,340.0060119628906,875.0830078125)"><path fill="rgb(25,25,25)" fill-opacity="1" d=" M27.054000854492188,-55.61199951171875 C26.854000091552734,-56.08300018310547 26.31100082397461,-56.301998138427734 25.840999603271484,-56.10200119018555 C14.946999549865723,-51.4739990234375 6.170000076293945,-45.89099884033203 -0.8610000014305115,-39.7130012512207 C-11.409000396728516,-30.445999145507812 -18.018999099731445,-19.841999053955078 -21.97800064086914,-9.175000190734863 C-25.937000274658203,1.4930000305175781 -27.253999710083008,12.223999977111816 -27.253999710083008,21.788999557495117 C-27.250999450683594,40.98699951171875 -21.959999084472656,55.51100158691406 -21.93899917602539,55.57400131225586 C-21.763999938964844,56.05400085449219 -21.232999801635742,56.30099868774414 -20.753000259399414,56.125999450683594 C-20.273000717163086,55.95100021362305 -20.024999618530273,55.41999816894531 -20.200000762939453,54.939998626708984 C-20.200000762939453,54.939998626708984 -20.20199966430664,54.93199920654297 -20.20199966430664,54.93199920654297 C-20.341999053955078,54.553001403808594 -25.405000686645508,40.35300064086914 -25.402999877929688,21.788999557495117 C-25.402999877929688,9.258000373840332 -23.10099983215332,-5.244999885559082 -15.472000122070312,-18.8700008392334 C-11.656999588012695,-25.68400001525879 -6.511000156402588,-32.28300094604492 0.3610000014305115,-38.321998596191406 C7.234000205993652,-44.361000061035156 15.833999633789062,-49.84000015258789 26.56399917602539,-54.39799880981445 C27.034000396728516,-54.597999572753906 27.253999710083008,-55.141998291015625 27.054000854492188,-55.61199951171875z"/></g><g opacity="1" transform="matrix(0.8970243334770203,0.44198113679885864,-0.44198113679885864,0.8970243334770203,398.05255126953125,-72.34686279296875)"><g opacity="1" transform="matrix(1,0,0,1,354.2860107421875,818.0650024414062)"><path fill="rgb(83,216,106)" fill-opacity="1" d=" M28.753999710083008,10.788000106811523 C26.041000366210938,14.793999671936035 20.520000457763672,15.534000396728516 16.43000030517578,12.4350004196167 C20.520000457763672,15.534000396728516 21.631999969482422,21.292999267578125 18.916000366210938,25.29800033569336 C16.198999404907227,29.30699920654297 10.678999900817871,30.042999267578125 6.586999893188477,26.947999954223633 C5.10099983215332,25.820999145507812 3.5829999446868896,21.95599937438965 2.9240000247955322,20.336999893188477 C3.433000087738037,22.735000610351562 3.4649999141693115,27.663000106811523 2.063999891281128,29.729000091552734 C-0.22599999606609344,33.10900115966797 -4.501999855041504,34.183998107910156 -8.251999855041504,32.61600112915039 C-8.984000205993652,32.308998107910156 -9.694999694824219,31.90399932861328 -10.369000434875488,31.393999099731445 C-11.043000221252441,30.884000778198242 -11.635000228881836,30.30299949645996 -12.145000457763672,29.667999267578125 C-14.25100040435791,27.052000045776367 -14.928000450134277,23.54599952697754 -13.91100025177002,20.514999389648438 C-16.30299949645996,22.506000518798828 -19.660999298095703,22.957000732421875 -22.68199920654297,21.691999435424805 C-23.413000106811523,21.385000228881836 -24.124000549316406,20.979000091552734 -24.798999786376953,20.469999313354492 C-25.472999572753906,19.959999084472656 -26.06399917602539,19.378000259399414 -26.575000762939453,18.743999481201172 C-29.187999725341797,15.496999740600586 -29.600000381469727,10.880000114440918 -27.30900001525879,7.499000072479248 C-25.906999588012695,5.428999900817871 -20.875999450683594,4.182000160217285 -18.56399917602539,3.9159998893737793 C-20.222999572753906,3.7769999504089355 -24.7810001373291,3.203000068664551 -26.270999908447266,2.0759999752044678 C-30.36199951171875,-1.0190000534057617 -31.475000381469727,-6.7769999504089355 -28.756999969482422,-10.78600025177002 C-26.040000915527344,-14.791000366210938 -20.520000457763672,-15.531000137329102 -16.429000854492188,-12.432999610900879 C-20.520000457763672,-15.531000137329102 -21.63599967956543,-21.291000366210938 -18.91900062561035,-25.29599952697754 C-16.20199966430664,-29.30500030517578 -10.682000160217285,-30.041000366210938 -6.591000080108643,-26.945999145507812 C-5.10099983215332,-25.819000244140625 -3.502000093460083,-23.145000457763672 -2.8420000076293945,-21.52899932861328 C-3.3510000705718994,-23.929000854492188 -3.4690001010894775,-27.660999298095703 -2.066999912261963,-29.729000091552734 C0.22699999809265137,-33.108001708984375 4.499000072479248,-34.183998107910156 8.24899959564209,-32.6150016784668 C8.980999946594238,-32.30799865722656 9.692000389099121,-31.902999877929688 10.366000175476074,-31.39299964904785 C11.039999961853027,-30.882999420166016 11.630999565124512,-30.301000595092773 12.142000198364258,-29.66699981689453 C14.248000144958496,-27.051000595092773 14.925000190734863,-23.54400062561035 13.91100025177002,-20.51300048828125 C16.299999237060547,-22.5049991607666 19.660999298095703,-22.954999923706055 22.68199920654297,-21.69099998474121 C23.413999557495117,-21.381999969482422 24.125,-20.97800064086914 24.798999786376953,-20.468000411987305 C25.472999572753906,-19.95800018310547 26.06399917602539,-19.375999450683594 26.575000762939453,-18.740999221801758 C29.18600082397461,-15.496000289916992 29.600000381469727,-10.878000259399414 27.305999755859375,-7.498000144958496 C25.90399932861328,-5.427999973297119 22.44700050354004,-4.431000232696533 20.135000228881836,-4.164999961853027 C21.797000885009766,-4.025000095367432 24.7810001373291,-3.2009999752044678 26.26799964904785,-2.0739998817443848 C30.358999252319336,1.0199999809265137 31.475000381469727,6.7789998054504395 28.753999710083008,10.788000106811523z"/></g><g opacity="1" transform="matrix(1,0,0,1,346.0459899902344,822.1019897460938)"><path fill="rgb(25,25,25)" fill-opacity="1" d=" M8.845000267028809,-4.1579999923706055 C8.795999526977539,-4.4039998054504395 8.600000381469727,-4.5960001945495605 8.352999687194824,-4.642000198364258 C4.964000225067139,-5.2729997634887695 2.00600004196167,-6.695000171661377 -0.6349999904632568,-8.769000053405762 C-3.2760000228881836,-10.843000411987305 -5.5960001945495605,-13.571999549865723 -7.671000003814697,-16.804000854492188 C-7.855000019073486,-17.091999053955078 -8.236000061035156,-17.174999237060547 -8.522000312805176,-16.990999221801758 C-8.809000015258789,-16.805999755859375 -8.894000053405762,-16.424999237060547 -8.710000038146973,-16.13800048828125 C-6.579999923706055,-12.819999694824219 -4.176000118255615,-9.979999542236328 -1.3980000019073486,-7.798999786376953 C1.0140000581741333,-5.9029998779296875 3.7130000591278076,-4.507999897003174 6.736000061035156,-3.7360000610351562 C3.884000062942505,-1.6160000562667847 1.5169999599456787,1.1119999885559082 -0.5,4.250999927520752 C-2.7869999408721924,7.809999942779541 -4.632999897003174,11.89900016784668 -6.25,16.263999938964844 C-6.368000030517578,16.58300018310547 -6.203999996185303,16.937999725341797 -5.883999824523926,17.05699920654297 C-5.565000057220459,17.174999237060547 -5.210000038146973,17.011999130249023 -5.0920000076293945,16.69300079345703 C-3.49399995803833,12.378999710083008 -1.6790000200271606,8.368000030517578 0.5389999747276306,4.918000221252441 C2.756999969482422,1.4670000076293945 5.373000144958496,-1.4210000038146973 8.57699966430664,-3.5199999809265137 C8.786999702453613,-3.6579999923706055 8.894000053405762,-3.9110000133514404 8.845000267028809,-4.1579999923706055z"/></g><g opacity="1" transform="matrix(1,0,0,1,362.50201416015625,814.0330200195312)"><path fill="rgb(25,25,25)" fill-opacity="1" d=" M8.479000091552734,15.911999702453613 C5.072999954223633,14.281999588012695 1.8849999904632568,12.527999877929688 -0.878000020980835,10.529999732971191 C-3.4690001010894775,8.657999992370605 -5.677999973297119,6.568999767303467 -7.363999843597412,4.173999786376953 C-4.4019999504089355,2.0239999294281006 -1.784999966621399,-0.6710000038146973 0.45399999618530273,-3.9489998817443848 C2.819000005722046,-7.413000106811523 4.76800012588501,-11.517999649047852 6.2820000648498535,-16.295000076293945 C6.385000228881836,-16.618999481201172 6.204999923706055,-16.966999053955078 5.880000114440918,-17.069000244140625 C5.554999828338623,-17.172000885009766 5.208000183105469,-16.992000579833984 5.105000019073486,-16.667999267578125 C3.621999979019165,-11.986000061035156 1.722000002861023,-7.99399995803833 -0.5649999976158142,-4.645999908447266 C-2.8529999256134033,-1.2970000505447388 -5.526000022888184,1.409999966621399 -8.569000244140625,3.5260000228881836 C-8.843999862670898,3.7179999351501465 -8.916000366210938,4.09499979019165 -8.730999946594238,4.374000072479248 C-6.9039998054504395,7.131999969482422 -4.452000141143799,9.470999717712402 -1.6019999980926514,11.529999732971191 C1.25,13.590999603271484 4.5,15.37600040435791 7.946000099182129,17.02400016784668 C8.253000259399414,17.172000885009766 8.621999740600586,17.04199981689453 8.769000053405762,16.733999252319336 C8.916000366210938,16.42799949645996 8.78600025177002,16.058000564575195 8.479000091552734,15.911999702453613z"/></g></g></g><g opacity="1" transform="matrix(0.9856594800949097,-0.16874650120735168,0.16874650120735168,0.9856594800949097,-156.14892578125,71.0775146484375)"><g opacity="1" transform="matrix(1,0,0,1,260.2919921875,891.8419799804688)"><path fill="rgb(25,25,25)" fill-opacity="1" d=" M79.36199951171875,59.8489990234375 C29.8700008392334,47.45800018310547 -9.567999839782715,17.20400047302246 -36.62200164794922,-9.975000381469727 C-50.14899826049805,-23.562999725341797 -60.57899856567383,-36.37900161743164 -67.62300109863281,-45.79199981689453 C-71.1449966430664,-50.49800109863281 -73.82099914550781,-54.35300064086914 -75.61399841308594,-57.029998779296875 C-76.51100158691406,-58.36800003051758 -77.18699645996094,-59.4119987487793 -77.63800048828125,-60.11899948120117 C-77.86399841308594,-60.472999572753906 -78.03399658203125,-60.742000579833984 -78.14600372314453,-60.922000885009766 C-78.2020034790039,-61.01300048828125 -78.24400329589844,-61.082000732421875 -78.27200317382812,-61.12799835205078 C-78.30000305175781,-61.17300033569336 -78.31300354003906,-61.19300079345703 -78.31300354003906,-61.19300079345703 C-78.5780029296875,-61.630001068115234 -79.14800262451172,-61.768001556396484 -79.58399963378906,-61.50299835205078 C-80.02100372314453,-61.23699951171875 -80.15899658203125,-60.66699981689453 -79.89399719238281,-60.22999954223633 C-79.86699676513672,-60.1879997253418 -65.13700103759766,-35.99700164794922 -37.933998107910156,-8.670999526977539 C-10.732000350952148,18.652999877929688 28.950000762939453,49.12699890136719 78.91200256347656,61.643001556396484 C79.40799713134766,61.766998291015625 79.91100311279297,61.465999603271484 80.03500366210938,60.970001220703125 C80.15899658203125,60.4739990234375 79.85800170898438,59.972999572753906 79.36199951171875,59.8489990234375z"/></g><g opacity="1" transform="matrix(0.7569634318351746,-0.6534572243690491,0.6534572243690491,0.7569634318351746,-488.1545715332031,308.8951721191406)"><g opacity="1" transform="matrix(1,0,0,1,171.18899536132812,810.7039794921875)"><path fill="rgb(83,216,106)" fill-opacity="1" d=" M35.590999603271484,-33.4630012512207 C38.99700164794922,-27.47800064086914 35.94900131225586,-19.469999313354492 28.780000686645508,-15.590999603271484 C35.94900131225586,-19.469999313354492 44.51900100708008,-17.756999969482422 47.922000885009766,-11.767000198364258 C51.32899856567383,-5.77400016784668 48.277000427246094,2.2300000190734863 41.11199951171875,6.11299991607666 C38.50600051879883,7.521999835968018 32.18899917602539,7.433000087738037 29.525999069213867,7.428999900817871 C33.12900161743164,8.079000473022461 39.7869987487793,10.807999610900879 41.542999267578125,13.89900016784668 C44.41699981689453,18.951000213623047 42.731998443603516,25.434999465942383 37.87300109863281,29.708999633789062 C36.92300033569336,30.54199981689453 35.858001708984375,31.291000366210938 34.676998138427734,31.930999755859375 C33.49599838256836,32.56999969482422 32.27899932861328,33.05699920654297 31.051000595092773,33.4010009765625 C25.986000061035156,34.82400131225586 20.76799964904785,33.779998779296875 17.433000564575195,30.674999237060547 C18.36199951171875,35.084999084472656 16.507999420166016,39.95600128173828 12.592000007629395,43.39699935913086 C11.642000198364258,44.22999954223633 10.576000213623047,44.97999954223633 9.395999908447266,45.619998931884766 C8.21500015258789,46.2599983215332 6.998000144958496,46.744998931884766 5.769999980926514,47.090999603271484 C-0.515999972820282,48.85599899291992 -7.034999847412109,46.82099914550781 -9.909000396728516,41.76900100708008 C-11.668999671936035,38.67599868774414 -9.663999557495117,31.05699920654297 -8.32800006866455,27.726999282836914 C-9.729000091552734,29.93000030517578 -13.842000007629395,35.874000549316406 -16.451000213623047,37.28799819946289 C-23.614999771118164,41.16999816894531 -32.183998107910156,39.457000732421875 -35.59199905395508,33.4640007019043 C-38.99399948120117,27.474000930786133 -35.946998596191406,19.466999053955078 -28.777999877929688,15.586999893188477 C-35.946998596191406,19.466999053955078 -44.51900100708008,17.757999420166016 -47.922000885009766,11.767000198364258 C-51.32899856567383,5.77400016784668 -48.277000427246094,-2.2309999465942383 -41.112998962402344,-6.111999988555908 C-38.50299835205078,-7.526000022888184 -33.72999954223633,-8.218999862670898 -31.07200050354004,-8.217000007629395 C-34.67599868774414,-8.866999626159668 -39.78799819946289,-10.807999610900879 -41.54399871826172,-13.89900016784668 C-44.41400146484375,-18.954999923706055 -42.733001708984375,-25.434999465942383 -37.874000549316406,-29.70800018310547 C-36.92399978637695,-30.541000366210938 -35.858001708984375,-31.290000915527344 -34.678001403808594,-31.930999755859375 C-33.49700164794922,-32.56999969482422 -32.279998779296875,-33.055999755859375 -31.052000045776367,-33.4010009765625 C-25.986000061035156,-34.823001861572266 -20.768999099731445,-33.779998779296875 -17.43000030517578,-30.679000854492188 C-18.36199951171875,-35.084999084472656 -16.506000518798828,-39.959999084472656 -12.59000015258789,-43.4010009765625 C-11.638999938964844,-44.23400115966797 -10.574000358581543,-44.98400115966797 -9.392999649047852,-45.62300109863281 C-8.211999893188477,-46.263999938964844 -6.995999813079834,-46.749000549316406 -5.767000198364258,-47.09400177001953 C0.5149999856948853,-48.85599899291992 7.038000106811523,-46.82500076293945 9.907999992370605,-41.76900100708008 C11.668999671936035,-38.67499923706055 10.477999687194824,-33.36000061035156 9.142000198364258,-30.0310001373291 C10.54699993133545,-32.237998962402344 13.843999862670898,-35.87799835205078 16.450000762939453,-37.2869987487793 C23.61400032043457,-41.16999816894531 32.1870002746582,-39.46099853515625 35.590999603271484,-33.4630012512207z"/></g><g opacity="1" transform="matrix(1,0,0,1,165.52099609375,826.0490112304688)"><path fill="rgb(25,25,25)" fill-opacity="1" d=" M23.535999298095703,14.894000053405762 C18.892000198364258,10.262999534606934 14.814000129699707,5.5 11.782999992370605,0.492000013589859 C8.75100040435791,-4.51800012588501 6.765999794006348,-9.765999794006348 6.2829999923706055,-15.39799976348877 C6.26200008392334,-15.649999618530273 6.085999965667725,-15.866000175476074 5.8429999351501465,-15.937999725341797 C5.599999904632568,-16.009000778198242 5.335000038146973,-15.92300033569336 5.181000232696533,-15.722000122070312 C1.805999994277954,-11.362000465393066 -2.3380000591278076,-8.04699993133545 -7.118000030517578,-5.556000232696533 C-11.897000312805176,-3.065999984741211 -17.31599998474121,-1.4019999504089355 -23.2189998626709,-0.36500000953674316 C-23.55500030517578,-0.3059999942779541 -23.77899932861328,0.014000000432133675 -23.719999313354492,0.3499999940395355 C-23.660999298095703,0.6850000023841858 -23.340999603271484,0.9100000262260437 -23.006000518798828,0.8500000238418579 C-17.007999420166016,-0.20399999618530273 -11.467000007629395,-1.8990000486373901 -6.546999931335449,-4.460999965667725 C-2.059000015258789,-6.798999786376953 1.909000039100647,-9.866000175476074 5.218999862670898,-13.8100004196167 C5.918000221252441,-8.515999794006348 7.885000228881836,-3.562999963760376 10.72700023651123,1.13100004196167 C13.833000183105469,6.26200008392334 17.97800064086914,11.093999862670898 22.663999557495117,15.767999649047852 C22.9060001373291,16.009000778198242 23.297000885009766,16.007999420166016 23.53700065612793,15.767000198364258 C23.777999877929688,15.526000022888184 23.777000427246094,15.133999824523926 23.535999298095703,14.894000053405762z"/></g><g opacity="1" transform="matrix(1,0,0,1,176.86700439453125,795.3400268554688)"><path fill="rgb(25,25,25)" fill-opacity="1" d=" M23.583999633789062,-0.6110000014305115 C23.371000289916992,-0.8769999742507935 22.98200035095215,-0.9200000166893005 22.715999603271484,-0.7059999704360962 C18.014999389648438,3.069000005722046 13.29800033569336,6.480000019073486 8.550999641418457,9.17300033569336 C4.014999866485596,11.746999740600586 -0.546999990940094,13.661999702453613 -5.150000095367432,14.62600040435791 C-5.8520002365112305,9.293000221252441 -7.574999809265137,4.125 -10.378999710083008,-0.8510000109672546 C-13.298999786376953,-6.035999774932861 -17.386999130249023,-11.01200008392334 -22.697999954223633,-15.77299976348877 C-22.95199966430664,-16.000999450683594 -23.341999053955078,-15.979000091552734 -23.569000244140625,-15.725000381469727 C-23.797000885009766,-15.470999717712402 -23.774999618530273,-15.081999778747559 -23.520999908447266,-14.854000091552734 C-18.29400062561035,-10.168999671936035 -14.29800033569336,-5.295000076293945 -11.454000473022461,-0.2460000067949295 C-8.609999656677246,4.803999900817871 -6.914999961853027,10.029000282287598 -6.290999889373779,15.434000015258789 C-6.270999908447266,15.604000091552734 -6.182000160217285,15.758000373840332 -6.043000221252441,15.859999656677246 C-5.90500020980835,15.961000442504883 -5.730999946594238,16.000999450683594 -5.561999797821045,15.968999862670898 C-0.5669999718666077,15.020999908447266 4.329999923706055,12.98799991607666 9.15999984741211,10.246000289916992 C13.991000175476074,7.505000114440918 18.756000518798828,4.054999828338623 23.48900032043457,0.25600001215934753 C23.7549991607666,0.0430000014603138 23.797000885009766,-0.3449999988079071 23.583999633789062,-0.6110000014305115z"/></g></g></g></g><g transform="matrix(1,0,0,1,0,0)" opacity="1" style="display: block;"><g opacity="1" transform="matrix(1,0,0,1,623.3400268554688,969.2130126953125)"><path fill="url(#__lottie_element_20581)" fill-opacity="1" d=" M391.2460021972656,-24.68400001525879 C392.31500244140625,-27.257999420166016 393.4549865722656,-29.957000732421875 392.9469909667969,-32.62200164794922 C387.04901123046875,-63.55799865722656 217.86599731445312,-66.69100189208984 189.5070037841797,-39.36199951171875 C141.031005859375,-81.37300109863281 -134.36199951171875,-79.1709976196289 -190.66299438476562,-43.42499923706055 C-335.9129943847656,-46.11399841308594 -454.0679931640625,-26.340999603271484 -454.57000732421875,0.7390000224113464 C-455.0710144042969,27.81999969482422 -337.72900390625,51.952999114990234 -192.47799682617188,54.64099884033203 C-148.57000732421875,55.45399856567383 -107.14199829101562,54.2130012512207 -70.68800354003906,51.3390007019043 C-16.128000259399414,66.3219985961914 64.4800033569336,76.64700317382812 154.5590057373047,78.31500244140625 C319.6910095214844,81.37200164794922 454.10699462890625,54.17499923706055 454.7850036621094,17.57200050354004 C455.0719909667969,2.062000036239624 431.29998779296875,-12.64799976348877 391.2460021972656,-24.68400001525879z"/></g></g><g transform="matrix(1,0,0,1,0,0)" opacity="0.5" style="display: block;"><g opacity="1" transform="matrix(1,0,0,1,612.6519775390625,970.969970703125)"><path fill="rgb(20,21,81)" fill-opacity="1" d=" M238.18899536132812,0 C238.18899536132812,20.305999755859375 131.54800415039062,36.766998291015625 0.0010000000474974513,36.766998291015625 C-131.54800415039062,36.766998291015625 -238.18800354003906,20.305999755859375 -238.18800354003906,0 C-238.18800354003906,-20.305999755859375 -131.54800415039062,-36.76599884033203 0.0010000000474974513,-36.76599884033203 C131.54800415039062,-36.76599884033203 238.18899536132812,-20.305999755859375 238.18899536132812,0z"/></g></g><g transform="matrix(1,0,0,1,0,0)" opacity="1" style="display: block;"><g opacity="1" transform="matrix(1,0,0,1,930.551025390625,932.8690185546875)"><path fill="rgb(255,255,255)" fill-opacity="1" d=" M66.19200134277344,29.746999740600586 C66.19200134277344,29.746999740600586 11.302000045776367,1.5160000324249268 11.302000045776367,1.5160000324249268 C13.574000358581543,-2.2070000171661377 14.835000038146973,-6.321000099182129 14.835000038146973,-10.645999908447266 C14.835000038146973,-27.416000366210938 -4.118000030517578,-41.01100158691406 -27.50200080871582,-41.01100158691406 C-50.88399887084961,-41.01100158691406 -69.83699798583984,-27.416000366210938 -69.83699798583984,-10.645999908447266 C-69.83699798583984,6.125 -50.88399887084961,19.7189998626709 -27.50200080871582,19.7189998626709 C-15.267000198364258,19.7189998626709 -4.242000102996826,15.994999885559082 3.4860000610351562,10.041999816894531 C3.4860000610351562,10.041999816894531 61.09199905395508,39.66699981689453 61.09199905395508,39.66699981689453 C63.70600128173828,41.01100158691406 66.91400146484375,39.98400115966797 68.25900268554688,37.367000579833984 C68.25900268554688,37.367000579833984 68.49199676513672,36.91699981689453 68.49199676513672,36.91699981689453 C69.83699798583984,34.29899978637695 68.80699920654297,31.090999603271484 66.19200134277344,29.746999740600586z M-27.50200080871582,10.984000205993652 C-44.15599822998047,10.984000205993652 -57.65800094604492,1.2990000247955322 -57.65800094604492,-10.645999908447266 C-57.65800094604492,-22.590999603271484 -44.15599822998047,-32.2760009765625 -27.50200080871582,-32.2760009765625 C-10.845999717712402,-32.2760009765625 2.6559998989105225,-22.590999603271484 2.6559998989105225,-10.645999908447266 C2.6559998989105225,1.2990000247955322 -10.845999717712402,10.984000205993652 -27.50200080871582,10.984000205993652z"/></g></g><g transform="matrix(1,0,0,1,0,0)" opacity="1" style="display: block;"><g opacity="1" transform="matrix(0.9999998211860657,0,0,0.9999998211860657,786.3519287109375,453.0020446777344)"><path fill="rgb(254,148,37)" fill-opacity="1" d=" M212.0399932861328,-117.6510009765625 C212.0399932861328,-117.6510009765625 198.18600463867188,-125.15599822998047 198.18600463867188,-125.15599822998047 C198.18600463867188,-125.15599822998047 154.87600708007812,-47.57699966430664 154.87600708007812,-47.57699966430664 C154.87600708007812,-47.57699966430664 94.68599700927734,-47.57699966430664 94.68599700927734,-47.57699966430664 C94.68599700927734,-47.57699966430664 40.80099868774414,33.93600082397461 40.80099868774414,33.93600082397461 C40.80099868774414,33.93600082397461 -51.939998626708984,-9.456000328063965 -51.939998626708984,-9.456000328063965 C-51.939998626708984,-9.456000328063965 -199.48899841308594,164.56100463867188 -199.48899841308594,164.56100463867188 C-199.48899841308594,164.56100463867188 -212.0399932861328,153.91900634765625 -212.0399932861328,153.91900634765625 C-212.0399932861328,153.91900634765625 -56.35599899291992,-29.68600082397461 -56.35599899291992,-29.68600082397461 C-56.35599899291992,-29.68600082397461 34.90800094604492,13.015000343322754 34.90800094604492,13.015000343322754 C34.90800094604492,13.015000343322754 85.84100341796875,-64.02899932861328 85.84100341796875,-64.02899932861328 C85.84100341796875,-64.02899932861328 145.218994140625,-64.02899932861328 145.218994140625,-64.02899932861328 C145.218994140625,-64.02899932861328 183.71600341796875,-132.9929962158203 183.71600341796875,-132.9929962158203 C183.71600341796875,-132.9929962158203 169.81900024414062,-140.5189971923828 169.81900024414062,-140.5189971923828 C169.81900024414062,-140.5189971923828 209.43299865722656,-164.56100463867188 209.43299865722656,-164.56100463867188 C209.43299865722656,-164.56100463867188 212.0399932861328,-117.6510009765625 212.0399932861328,-117.6510009765625z"/></g><g opacity="1" transform="matrix(1,0,0,1,0,0)"><g opacity="1" transform="matrix(1,0,0,1,0,0)"><path stroke-linecap="butt" stroke-linejoin="miter" fill-opacity="0" stroke-miterlimit="10" stroke-dasharray=" 10" stroke-dashoffset="0" stroke="rgb(254,148,37)" stroke-opacity="1" stroke-width="1.5" d=" M939.2869873046875,410.8529968261719 C939.2869873046875,410.8529968261719 939.2869873046875,738.8300170898438 939.2869873046875,738.8300170898438"/></g><g opacity="1" transform="matrix(1,0,0,1,826.2579956054688,613.5159912109375)"><path stroke-linecap="butt" stroke-linejoin="miter" fill-opacity="0" stroke-miterlimit="10" stroke-dasharray=" 10" stroke-dashoffset="0" stroke="rgb(254,148,37)" stroke-opacity="1" stroke-width="1.5" d=" M0.4300000071525574,-123.54399871826172 C0.4300000071525574,-123.54399871826172 -0.4300000071525574,123.54299926757812 -0.4300000071525574,123.54299926757812"/></g></g></g><g transform="matrix(1,0,0,1,0,0)" opacity="1" style="display: block;"><g opacity="1" transform="matrix(1,0,0,1,991.9920043945312,682.8980102539062)"><path fill="url(#__lottie_element_20594)" fill-opacity="1" d=" M24.36400032043457,0 C24.36400032043457,13.454999923706055 13.454999923706055,24.363000869750977 0,24.363000869750977 C-13.456000328063965,24.363000869750977 -24.36400032043457,13.454999923706055 -24.36400032043457,0 C-24.36400032043457,-13.456000328063965 -13.456000328063965,-24.363000869750977 0,-24.363000869750977 C13.454999923706055,-24.363000869750977 24.36400032043457,-13.456000328063965 24.36400032043457,0z"/></g><g opacity="1" transform="matrix(1,0,0,1,230.6510009765625,632.3629760742188)"><path fill="url(#__lottie_element_20595)" fill-opacity="1" d=" M32.374000549316406,0 C32.374000549316406,17.8799991607666 17.8799991607666,32.374000549316406 0,32.374000549316406 C-17.8799991607666,32.374000549316406 -32.374000549316406,17.8799991607666 -32.374000549316406,0 C-32.374000549316406,-17.8799991607666 -17.8799991607666,-32.374000549316406 0,-32.374000549316406 C17.8799991607666,-32.374000549316406 32.374000549316406,-17.8799991607666 32.374000549316406,0z"/></g><g opacity="1" transform="matrix(1,0,0,1,165.51499938964844,682.8980102539062)"><path fill="url(#__lottie_element_20596)" fill-opacity="1" d=" M24.35700035095215,0 C24.35700035095215,13.45300006866455 13.45199966430664,24.360000610351562 0,24.360000610351562 C-13.45300006866455,24.360000610351562 -24.357999801635742,13.45300006866455 -24.357999801635742,0 C-24.357999801635742,-13.454000473022461 -13.45300006866455,-24.361000061035156 0,-24.361000061035156 C13.45199966430664,-24.361000061035156 24.35700035095215,-13.454000473022461 24.35700035095215,0z"/></g></g><g transform="matrix(0.6093053221702576,0.7929356694221497,-0.7929356694221497,0.6093053221702576,492.8829345703125,-37.23828125)" opacity="1" style="display: block;"><g opacity="1" transform="matrix(1,0,0,1,284.2300109863281,481.5469970703125)"><path fill="rgb(221,221,221)" fill-opacity="1" d=" M-34.79800033569336,-20.235000610351562 C-34.79800033569336,-20.235000610351562 -31.731000900268555,16.15399932861328 2.4690001010894775,36.1510009765625 C27.406999588012695,21.56999969482422 34.79800033569336,7.958000183105469 34.79800033569336,7.958000183105469 C34.79800033569336,7.958000183105469 19.082000732421875,-16.14299964904785 19.082000732421875,-36.1510009765625 C-6.960000038146973,-34.332000732421875 -34.79800033569336,-20.235000610351562 -34.79800033569336,-20.235000610351562z"/></g><g opacity="1" transform="matrix(1,0,0,1,278.4670104980469,467.9049987792969)"><path fill="rgb(88,91,212)" fill-opacity="1" d=" M-17.062000274658203,4.926000118255615 C-17.062000274658203,4.926000118255615 17.062000274658203,-8.26099967956543 17.062000274658203,-8.26099967956543 C17.062000274658203,-8.26099967956543 19.007999420166016,-7.199999809265137 19.007999420166016,-4.4710001945495605 C13.170999526977539,-0.07599999755620956 -15.116999626159668,8.26099967956543 -15.116999626159668,8.26099967956543 C-15.116999626159668,8.26099967956543 -19.007999420166016,7.65500020980835 -17.062000274658203,4.926000118255615z"/></g></g><g transform="matrix(1,0,0,1,0,0)" opacity="1" style="display: block;"><g opacity="1" transform="matrix(0.4216960668563843,0.9067372679710388,-0.9067372679710388,0.4216960668563843,1060.6505126953125,-497.04248046875)"><g opacity="1" transform="matrix(1,0,0,1,919.9879760742188,582.989013671875)"><path fill="rgb(255,168,76)" fill-opacity="1" d=" M10.63700008392334,-53.05799865722656 C10.63700008392334,-53.05799865722656 10.63700008392334,-53.05799865722656 10.63700008392334,-53.05799865722656 C-18.66699981689453,-58.93299865722656 -47.18299865722656,-39.93899917602539 -53.05799865722656,-10.63599967956543 C-58.93199920654297,18.667999267578125 -39.93899917602539,47.183998107910156 -10.63599967956543,53.05799865722656 C-10.63599967956543,53.05799865722656 -10.635000228881836,53.05799865722656 -10.635000228881836,53.05799865722656 C18.66699981689453,58.93299865722656 47.185001373291016,39.939998626708984 53.058998107910156,10.63700008392334 C58.93299865722656,-18.666000366210938 39.941001892089844,-47.18299865722656 10.63700008392334,-53.05799865722656z"/></g><g opacity="1" transform="matrix(1,0,0,1,917.5869750976562,581.7139892578125)"><path fill="rgb(255,255,255)" fill-opacity="1" d=" M12.342000007629395,8.614999771118164 C11.182000160217285,6.531000137329102 9.52400016784668,4.376999855041504 7.696000099182129,2.1549999713897705 C4.956999778747559,-1.1629999876022339 1.8240000009536743,-4.611999988555908 -0.45399999618530273,-7.607999801635742 C-1.5920000076293945,-9.098999977111816 -2.509999990463257,-10.480999946594238 -3.0409998893737793,-11.571000099182129 C-3.308000087738037,-12.11400032043457 -3.4760000705718994,-12.579999923706055 -3.552999973297119,-12.913000106811523 C-3.631999969482422,-13.25 -3.614000082015991,-13.435999870300293 -3.6040000915527344,-13.47700023651123 C-3.1040000915527344,-15.963000297546387 -1.6820000410079956,-17.989999771118164 0.20900000631809235,-19.288999557495117 C2.1070001125335693,-20.583999633789062 4.429999828338623,-21.131999969482422 6.797999858856201,-20.659000396728516 C5.4710001945495605,-20.926000595092773 4.611999988555908,-22.216999053955078 4.877999782562256,-23.542999267578125 C4.877999782562256,-23.542999267578125 5.313000202178955,-25.71299934387207 5.313000202178955,-25.71299934387207 C2.453000068664551,-25.7549991607666 -0.2919999957084656,-24.888999938964844 -2.559999942779541,-23.33099937438965 C-5.47599983215332,-21.336000442504883 -7.65500020980835,-18.201000213623047 -8.407999992370605,-14.4399995803833 C-8.557000160217285,-13.694000244140625 -8.53499984741211,-12.967000007629395 -8.420999526977539,-12.281999588012695 C-8.201000213623047,-10.996000289916992 -7.684999942779541,-9.819000244140625 -7.026000022888184,-8.621000289916992 C-5.866000175476074,-6.535999774932861 -4.208000183105469,-4.382999897003174 -2.380000114440918,-2.1610000133514404 C0.35899999737739563,1.156999945640564 3.490999937057495,4.605999946594238 5.769999980926514,7.6020002365112305 C6.9070000648498535,9.093999862670898 7.824999809265137,10.475000381469727 8.357000350952148,11.565999984741211 C8.62399959564209,12.107999801635742 8.791999816894531,12.574000358581543 8.868000030517578,12.907999992370605 C8.946999549865723,13.244999885559082 8.930000305175781,13.430000305175781 8.918999671936035,13.470999717712402 C8.420000076293945,15.956999778747559 6.998000144958496,17.983999252319336 5.10699987411499,19.283000946044922 C3.2090001106262207,20.57699966430664 0.8859999775886536,21.125999450683594 -1.4830000400543213,20.652999877929688 C-3.8499999046325684,20.176000595092773 -5.783999919891357,18.774999618530273 -7.034999847412109,16.849000930786133 C-8.279999732971191,14.92199993133545 -8.810999870300293,12.503000259399414 -8.312999725341797,10.017000198364258 C-8.04800033569336,8.6899995803833 -8.907999992370605,7.39900016784668 -10.234000205993652,7.132999897003174 C-11.560999870300293,6.867000102996826 -12.85200023651123,7.7270002365112305 -13.118000030517578,9.053000450134277 C-13.873000144958496,12.8149995803833 -13.071000099182129,16.54599952697754 -11.14900016784668,19.511999130249023 C-9.64900016784668,21.833999633789062 -7.435999870300293,23.69700050354004 -4.764999866485596,24.757999420166016 C-4.3520002365112305,23.649999618530273 -3.191999912261963,22.969999313354492 -1.996000051498413,23.208999633789062 C-0.7990000247955322,23.448999404907227 0.008999999612569809,24.52400016784668 -0.03700000047683716,25.704999923706055 C2.8369998931884766,25.756000518798828 5.5970001220703125,24.891000747680664 7.875999927520752,23.325000762939453 C10.791999816894531,21.32900047302246 12.970999717712402,18.195999145507812 13.723999977111816,14.434000015258789 C13.873000144958496,13.689000129699707 13.85099983215332,12.961000442504883 13.737000465393066,12.276000022888184 C13.517000198364258,10.989999771118164 13.00100040435791,9.812999725341797 12.342000007629395,8.614999771118164z"/></g><g opacity="1" transform="matrix(1,0,0,1,930.5809936523438,565.9030151367188)"><path fill="rgb(255,255,255)" fill-opacity="1" d=" M-6.195000171661377,-4.8480000495910645 C-3.8269999027252197,-4.370999813079834 -1.8940000534057617,-2.9700000286102295 -0.6430000066757202,-1.0440000295639038 C0.6019999980926514,0.8840000033378601 1.1330000162124634,3.302999973297119 0.6349999904632568,5.789000034332275 C0.36899998784065247,7.114999771118164 1.2289999723434448,8.406999588012695 2.555999994277954,8.67300033569336 C3.882999897003174,8.939000129699707 5.173999786376953,8.079000473022461 5.440000057220459,6.751999855041504 C6.195000171661377,2.990999937057495 5.39300012588501,-0.7409999966621399 3.4709999561309814,-3.7060000896453857 C1.9769999980926514,-6.019000053405762 -0.22100000083446503,-7.875 -2.877000093460083,-8.939000129699707 C-2.877000093460083,-8.939000129699707 -3.311000108718872,-6.769000053405762 -3.311000108718872,-6.769000053405762 C-3.5769999027252197,-5.441999912261963 -4.868000030517578,-4.581999778747559 -6.195000171661377,-4.8480000495910645z"/></g><g opacity="1" transform="matrix(1,0,0,1,925.7680053710938,554.155029296875)"><path fill="rgb(255,255,255)" fill-opacity="1" d=" M-1.3830000162124634,6.900000095367432 C-1.3830000162124634,6.900000095367432 -1.3830000162124634,6.900000095367432 -1.3830000162124634,6.900000095367432 C-0.0560000017285347,7.165999889373779 1.2350000143051147,6.306000232696533 1.5010000467300415,4.979000091552734 C1.5010000467300415,4.979000091552734 1.934999942779541,2.809000015258789 1.934999942779541,2.809000015258789 C1.934999942779541,2.809000015258789 3.302999973297119,-4.017000198364258 3.302999973297119,-4.017000198364258 C3.569999933242798,-5.3429999351501465 2.7100000381469727,-6.635000228881836 1.3830000162124634,-6.900000095367432 C0.0560000017285347,-7.165999889373779 -1.2339999675750732,-6.307000160217285 -1.5,-4.980000019073486 C-1.5,-4.980000019073486 -2.86899995803833,1.8459999561309814 -2.86899995803833,1.8459999561309814 C-2.86899995803833,1.8459999561309814 -3.303999900817871,4.015999794006348 -3.303999900817871,4.015999794006348 C-3.571000099182129,5.3420000076293945 -2.7100000381469727,6.632999897003174 -1.3830000162124634,6.900000095367432z"/></g><g opacity="1" transform="matrix(1,0,0,1,914.1170043945312,611.8359985351562)"><path fill="rgb(255,255,255)" fill-opacity="1" d=" M1.4739999771118164,-6.914000034332275 C0.27799999713897705,-7.1529998779296875 -0.8820000290870667,-6.473999977111816 -1.2960000038146973,-5.364999771118164 C-1.340000033378601,-5.244999885559082 -1.3830000162124634,-5.122000217437744 -1.409999966621399,-4.992000102996826 C-1.409999966621399,-4.992000102996826 -3.2130000591278076,4.004000186920166 -3.2130000591278076,4.004000186920166 C-3.4790000915527344,5.329999923706055 -2.619999885559082,6.622000217437744 -1.2929999828338623,6.888000011444092 C0.03500000014901161,7.1529998779296875 1.3259999752044678,6.293000221252441 1.5920000076293945,4.966000080108643 C1.5920000076293945,4.966000080108643 3.3949999809265137,-4.0289998054504395 3.3949999809265137,-4.0289998054504395 C3.4210000038146973,-4.159999847412109 3.427999973297119,-4.288000106811523 3.433000087738037,-4.416999816894531 C3.4790000915527344,-5.598999977111816 2.6710000038146973,-6.673999786376953 1.4739999771118164,-6.914000034332275z"/></g></g><g opacity="1" transform="matrix(0.4216960668563843,-0.9067372679710388,0.9067372679710388,0.4216960668563843,-394.3687438964844,548.4833374023438)"><g opacity="1" transform="matrix(1,0,0,1,232.80599975585938,583.4119873046875)"><path fill="rgb(255,168,76)" fill-opacity="1" d=" M-15.413000106811523,-37.59299850463867 C-15.413000106811523,-37.59299850463867 -15.413000106811523,-37.59299850463867 -15.413000106811523,-37.59299850463867 C-36.17499923706055,-29.08099937438965 -46.10499954223633,-5.348999977111816 -37.59299850463867,15.413000106811523 C-29.08099937438965,36.17499923706055 -5.349999904632568,46.10499954223633 15.413000106811523,37.59299850463867 C36.17499923706055,29.08099937438965 46.10499954223633,5.348999977111816 37.59299850463867,-15.413000106811523 C29.08099937438965,-36.17499923706055 5.348999977111816,-46.10499954223633 -15.413000106811523,-37.59299850463867z"/></g><g opacity="1" transform="matrix(1,0,0,1,232.43499755859375,583.4249877929688)"><path fill="rgb(255,255,255)" fill-opacity="1" d=" M9.637999534606934,0.4429999887943268 C8.045999526977539,-0.3779999911785126 6.113999843597412,-1.034999966621399 4.046999931335449,-1.6640000343322754 C0.9549999833106995,-2.5989999771118164 -2.437999963760376,-3.453000068664551 -5.107999801635742,-4.379000186920166 C-6.439000129699707,-4.8379998207092285 -7.586999893188477,-5.320000171661377 -8.373000144958496,-5.78000020980835 C-8.765000343322754,-6.007999897003174 -9.0649995803833,-6.230000019073486 -9.25100040435791,-6.4070000648498535 C-9.4399995803833,-6.585000038146973 -9.506999969482422,-6.708000183105469 -9.517999649047852,-6.73799991607666 C-10.23900032043457,-8.49899959564209 -10.192999839782715,-10.357999801635742 -9.550000190734863,-11.956999778747559 C-8.902999877929688,-13.555000305175781 -7.677999973297119,-14.86400032043457 -6.000999927520752,-15.553000450134277 C-6.940999984741211,-15.168000221252441 -8.015000343322754,-15.618000030517578 -8.399999618530273,-16.55699920654297 C-8.399999618530273,-16.55699920654297 -9.029999732971191,-18.094999313354492 -9.029999732971191,-18.094999313354492 C-10.836000442504883,-16.93199920654297 -12.192000389099121,-15.25 -12.961999893188477,-13.331999778747559 C-13.956000328063965,-10.871999740600586 -14.013999938964844,-8.006999969482422 -12.920999526977539,-5.3420000076293945 C-12.704000473022461,-4.814000129699707 -12.38700008392334,-4.36899995803833 -12.031000137329102,-3.98799991607666 C-11.359000205993652,-3.2750000953674316 -10.54800033569336,-2.753999948501587 -9.63700008392334,-2.2790000438690186 C-8.045000076293945,-1.4579999446868896 -6.113999843597412,-0.8019999861717224 -4.047999858856201,-0.1720000058412552 C-0.9549999833106995,0.7630000114440918 2.437000036239624,1.6169999837875366 5.10699987411499,2.5429999828338623 C6.438000202178955,3.002000093460083 7.586999893188477,3.4839999675750732 8.371999740600586,3.944000005722046 C8.765000343322754,4.171999931335449 9.0649995803833,4.394000053405762 9.25100040435791,4.571000099182129 C9.440999984741211,4.749000072479248 9.506999969482422,4.872000217437744 9.517999649047852,4.9019999504089355 C10.23900032043457,6.663000106811523 10.192000389099121,8.522000312805176 9.548999786376953,10.121000289916992 C8.902000427246094,11.718999862670898 7.677999973297119,13.027999877929688 6,13.717000007629395 C4.322000026702881,14.402999877929688 2.5309998989105225,14.331000328063965 0.9480000138282776,13.64799976348877 C-0.6320000290870667,12.961000442504883 -1.9700000286102295,11.668999671936035 -2.693000078201294,9.907999992370605 C-3.078000068664551,8.968000411987305 -4.1529998779296875,8.517999649047852 -5.0920000076293945,8.904000282287598 C-6.0320000648498535,9.288999557495117 -6.48199987411499,10.36299991607666 -6.0960001945495605,11.303000450134277 C-5.005000114440918,13.968999862670898 -2.9519999027252197,15.968000411987305 -0.5180000066757202,17.023000717163086 C1.3860000371932983,17.851999282836914 3.5450000762939453,18.094999313354492 5.656000137329102,17.648000717163086 C5.453000068664551,16.783000946044922 5.894999980926514,15.87600040435791 6.743000030517578,15.527999877929688 C7.591000080108643,15.180999755859375 8.543000221252441,15.517000198364258 9.005999565124512,16.274999618530273 C10.822999954223633,15.111000061035156 12.189000129699707,13.42199993133545 12.963000297546387,11.496000289916992 C13.956000328063965,9.03600025177002 14.015000343322754,6.171000003814697 12.92199993133545,3.50600004196167 C12.704999923706055,2.9779999256134033 12.387999534606934,2.5320000648498535 12.031999588012695,2.1510000228881836 C11.359999656677246,1.440000057220459 10.54800033569336,0.9179999828338623 9.637999534606934,0.4429999887943268z"/></g><g opacity="1" transform="matrix(1,0,0,1,232.67599487304688,568.2830200195312)"><path fill="rgb(255,255,255)" fill-opacity="1" d=" M-6.241000175476074,-0.41200000047683716 C-4.563000202178955,-1.0989999771118164 -2.7720000743865967,-1.0260000228881836 -1.1890000104904175,-0.34200000762939453 C0.39100000262260437,0.3449999988079071 1.7289999723434448,1.6369999647140503 2.4519999027252197,3.3980000019073486 C2.8369998931884766,4.3379998207092285 3.9119999408721924,4.788000106811523 4.8520002365112305,4.4019999504089355 C5.791999816894531,4.017000198364258 6.241000175476074,2.941999912261963 5.855999946594238,2.002000093460083 C4.763999938964844,-0.6629999876022339 2.7109999656677246,-2.6619999408721924 0.2759999930858612,-3.7179999351501465 C-1.61899995803833,-4.541999816894531 -3.7660000324249268,-4.788000106811523 -5.867000102996826,-4.349999904632568 C-5.867000102996826,-4.349999904632568 -5.236999988555908,-2.812000036239624 -5.236999988555908,-2.812000036239624 C-4.8520002365112305,-1.871999979019165 -5.301000118255615,-0.7979999780654907 -6.241000175476074,-0.41200000047683716z"/></g><g opacity="1" transform="matrix(1,0,0,1,224.42999267578125,562.9819946289062)"><path fill="rgb(255,255,255)" fill-opacity="1" d=" M2.003999948501587,4.888999938964844 C2.003999948501587,4.888999938964844 2.003999948501587,4.888999938964844 2.003999948501587,4.888999938964844 C2.003999948501587,4.888999938964844 2.005000114440918,4.888999938964844 2.005000114440918,4.888999938964844 C2.944999933242798,4.502999782562256 3.3940000534057617,3.430000066757202 3.009000062942505,2.490000009536743 C3.009000062942505,2.490000009536743 2.378999948501587,0.9509999752044678 2.378999948501587,0.9509999752044678 C2.378999948501587,0.9509999752044678 0.3959999978542328,-3.884999990463257 0.3959999978542328,-3.884999990463257 C0.009999999776482582,-4.824999809265137 -1.0640000104904175,-5.27400016784668 -2.003999948501587,-4.888000011444092 C-2.944999933242798,-4.502999782562256 -3.3940000534057617,-3.428999900817871 -3.009000062942505,-2.489000082015991 C-3.009000062942505,-2.489000082015991 -1.0260000228881836,2.3469998836517334 -1.0260000228881836,2.3469998836517334 C-1.0260000228881836,2.3469998836517334 -0.39500001072883606,3.884999990463257 -0.39500001072883606,3.884999990463257 C-0.009999999776482582,4.824999809265137 1.0640000104904175,5.27400016784668 2.003999948501587,4.888999938964844z"/></g><g opacity="1" transform="matrix(1,0,0,1,241.23199462890625,603.8610229492188)"><path fill="rgb(255,255,255)" fill-opacity="1" d=" M-2.053999900817871,-4.9079999923706055 C-2.9019999504089355,-4.559999942779541 -3.3440001010894775,-3.6530001163482666 -3.1410000324249268,-2.7890000343322754 C-3.11899995803833,-2.694000005722046 -3.0969998836517334,-2.5999999046325684 -3.059000015258789,-2.507999897003174 C-3.059000015258789,-2.507999897003174 -0.4449999928474426,3.865000009536743 -0.4449999928474426,3.865000009536743 C-0.05900000035762787,4.806000232696533 1.0140000581741333,5.255000114440918 1.9539999961853027,4.869999885559082 C2.8940000534057617,4.485000133514404 3.3440001010894775,3.4110000133514404 2.9579999446868896,2.4709999561309814 C2.9579999446868896,2.4709999561309814 0.34599998593330383,-3.9040000438690186 0.34599998593330383,-3.9040000438690186 C0.30799999833106995,-3.996000051498413 0.257999986410141,-4.078000068664551 0.20800000429153442,-4.160999774932861 C-0.2549999952316284,-4.919000148773193 -1.2059999704360962,-5.25600004196167 -2.053999900817871,-4.9079999923706055z"/></g></g></g></g><g clip-path="url(#__lottie_element_20568)" transform="matrix(1,0,0,1,0,0)" opacity="1" style="display: block;"><g style="display: block;" transform="matrix(0.9999992847442627,0,0,0.9999992847442627,0.0006103515625,0.00030517578125)" opacity="1"><g opacity="1" transform="matrix(1,0,0,1,854.2639770507812,417.302001953125)"><path fill="rgb(208,132,51)" fill-opacity="1" d=" M6.447999954223633,0 C6.447999954223633,3.562000036239624 3.559999942779541,6.448999881744385 -0.0010000000474974513,6.448999881744385 C-3.562999963760376,6.448999881744385 -6.448999881744385,3.562000036239624 -6.448999881744385,0 C-6.448999881744385,-3.562000036239624 -3.562999963760376,-6.448999881744385 -0.0010000000474974513,-6.448999881744385 C3.559999942779541,-6.448999881744385 6.447999954223633,-3.562000036239624 6.447999954223633,0z"/></g><g opacity="1" transform="matrix(1,0,0,1,786.3519897460938,343.7070007324219)"><path fill="rgb(239,239,239)" fill-opacity="1" d=" M136.9080047607422,-49.069000244140625 C136.9080047607422,-49.069000244140625 136.9080047607422,-5.836999893188477 136.9080047607422,-5.836999893188477 C136.9080047607422,7.535999774932861 126.06900024414062,18.375 112.6969985961914,18.375 C112.6969985961914,18.375 50.20199966430664,18.375 50.20199966430664,18.375 C50.20199966430664,18.375 67.3219985961914,73.27999877929688 67.3219985961914,73.27999877929688 C67.3219985961914,73.27999877929688 14.876999855041504,18.375 14.876999855041504,18.375 C14.876999855041504,18.375 -112.6969985961914,18.375 -112.6969985961914,18.375 C-126.06999969482422,18.375 -136.9080047607422,7.535999774932861 -136.9080047607422,-5.836999893188477 C-136.9080047607422,-5.836999893188477 -136.9080047607422,-49.069000244140625 -136.9080047607422,-49.069000244140625 C-136.9080047607422,-62.441001892089844 -126.06999969482422,-73.27999877929688 -112.6969985961914,-73.27999877929688 C-112.6969985961914,-73.27999877929688 112.6969985961914,-73.27999877929688 112.6969985961914,-73.27999877929688 C126.06900024414062,-73.27999877929688 136.9080047607422,-62.441001892089844 136.9080047607422,-49.069000244140625z"/></g><g opacity="1" transform="matrix(1,0,0,1,848.4210205078125,294.99200439453125)"><path fill="rgb(234,155,71)" fill-opacity="1" d=" M44.979000091552734,4.252999782562256 C44.979000091552734,4.252999782562256 -45.033687591552734,4.253003120422363 -45.033687591552734,4.253003120422363 C-46.795684814453125,4.253003120422363 -48.222686767578125,2.825002908706665 -48.222686767578125,1.0640029907226562 C-48.222686767578125,1.0640029907226562 -48.222686767578125,-1.0629969835281372 -48.222686767578125,-1.0629969835281372 C-48.222686767578125,-2.8249969482421875 -46.795684814453125,-4.252996921539307 -45.033687591552734,-4.252996921539307 C-45.033687591552734,-4.252996921539307 44.979000091552734,-4.252999782562256 44.979000091552734,-4.252999782562256 C46.74100112915039,-4.252999782562256 48.167999267578125,-2.825000047683716 48.167999267578125,-1.062999963760376 C48.167999267578125,-1.062999963760376 48.167999267578125,1.0640000104904175 48.167999267578125,1.0640000104904175 C48.167999267578125,2.825000047683716 46.74100112915039,4.252999782562256 44.979000091552734,4.252999782562256z"/></g><g opacity="1" transform="matrix(1,0,0,1,821.302001953125,318.5769958496094)"><path fill="rgb(209,209,218)" fill-opacity="1" d=" M72.0979995727539,4.252999782562256 C72.0979995727539,4.252999782562256 -72.04281616210938,4.253003120422363 -72.04281616210938,4.253003120422363 C-73.80481719970703,4.253003120422363 -75.23281860351562,2.825002908706665 -75.23281860351562,1.0640029907226562 C-75.23281860351562,1.0640029907226562 -75.23281860351562,-1.0629969835281372 -75.23281860351562,-1.0629969835281372 C-75.23281860351562,-2.8249969482421875 -73.80481719970703,-4.252996921539307 -72.04281616210938,-4.252996921539307 C-72.04281616210938,-4.252996921539307 72.0979995727539,-4.252999782562256 72.0979995727539,-4.252999782562256 C73.86000061035156,-4.252999782562256 75.28700256347656,-2.825000047683716 75.28700256347656,-1.062999963760376 C75.28700256347656,-1.062999963760376 75.28700256347656,1.0640000104904175 75.28700256347656,1.0640000104904175 C75.28700256347656,2.825000047683716 73.86000061035156,4.252999782562256 72.0979995727539,4.252999782562256z"/></g><g opacity="1" transform="matrix(1,0,0,1,821.302001953125,339.4530029296875)"><path fill="rgb(209,209,218)" fill-opacity="1" d=" M72.0979995727539,4.252999782562256 C72.0979995727539,4.252999782562256 -37.381526947021484,4.256006240844727 -37.381526947021484,4.256006240844727 C-39.143524169921875,4.256006240844727 -40.57152557373047,2.8280060291290283 -40.57152557373047,1.06700599193573 C-40.57152557373047,1.06700599193573 -40.57152557373047,-1.0599939823150635 -40.57152557373047,-1.0599939823150635 C-40.57152557373047,-2.8219940662384033 -39.143524169921875,-4.249993801116943 -37.381526947021484,-4.249993801116943 C-37.381526947021484,-4.249993801116943 72.0979995727539,-4.252999782562256 72.0979995727539,-4.252999782562256 C73.86000061035156,-4.252999782562256 75.28700256347656,-2.825000047683716 75.28700256347656,-1.062999963760376 C75.28700256347656,-1.062999963760376 75.28700256347656,1.0640000104904175 75.28700256347656,1.0640000104904175 C75.28700256347656,2.825000047683716 73.86000061035156,4.252999782562256 72.0979995727539,4.252999782562256z"/></g></g><g transform="matrix(0.9999992847442627,0,0,0.9999992847442627,0.0006103515625,0.00030517578125)" opacity="1" style="display: block;"><g opacity="0.658451947300689" transform="matrix(1.205893635749817,0,0,1.205893635749817,697.7119750976562,316.2539978027344)"><path fill="rgb(83,216,106)" fill-opacity="1" d=" M24.993999481201172,31.31800079345703 C24.993999481201172,31.31800079345703 -24.993999481201172,31.31800079345703 -24.993999481201172,31.31800079345703 C-28.486000061035156,31.31800079345703 -31.31800079345703,28.486000061035156 -31.31800079345703,24.993999481201172 C-31.31800079345703,24.993999481201172 -31.31800079345703,-24.993999481201172 -31.31800079345703,-24.993999481201172 C-31.31800079345703,-28.48699951171875 -28.486000061035156,-31.31800079345703 -24.993999481201172,-31.31800079345703 C-24.993999481201172,-31.31800079345703 24.993999481201172,-31.31800079345703 24.993999481201172,-31.31800079345703 C28.48699951171875,-31.31800079345703 31.31800079345703,-28.48699951171875 31.31800079345703,-24.993999481201172 C31.31800079345703,-24.993999481201172 31.31800079345703,24.993999481201172 31.31800079345703,24.993999481201172 C31.31800079345703,28.486000061035156 28.48699951171875,31.31800079345703 24.993999481201172,31.31800079345703z"/></g><g opacity="1" transform="matrix(1,0,0,1,697.7119750976562,316.2539978027344)"><path fill="rgb(83,216,106)" fill-opacity="1" d=" M24.993999481201172,31.31800079345703 C24.993999481201172,31.31800079345703 -24.993999481201172,31.31800079345703 -24.993999481201172,31.31800079345703 C-28.486000061035156,31.31800079345703 -31.31800079345703,28.486000061035156 -31.31800079345703,24.993999481201172 C-31.31800079345703,24.993999481201172 -31.31800079345703,-24.993999481201172 -31.31800079345703,-24.993999481201172 C-31.31800079345703,-28.48699951171875 -28.486000061035156,-31.31800079345703 -24.993999481201172,-31.31800079345703 C-24.993999481201172,-31.31800079345703 24.993999481201172,-31.31800079345703 24.993999481201172,-31.31800079345703 C28.48699951171875,-31.31800079345703 31.31800079345703,-28.48699951171875 31.31800079345703,-24.993999481201172 C31.31800079345703,-24.993999481201172 31.31800079345703,24.993999481201172 31.31800079345703,24.993999481201172 C31.31800079345703,28.486000061035156 28.48699951171875,31.31800079345703 24.993999481201172,31.31800079345703z"/></g><g opacity="1" transform="matrix(1,0,0,1,697.5189819335938,313.0989990234375)"><path fill="rgb(255,255,255)" fill-opacity="1" d=" M13.375,0.8050000071525574 C13.375,0.8050000071525574 6.688000202178955,-10.777000427246094 6.688000202178955,-10.777000427246094 C6.688000202178955,-10.777000427246094 0,-22.358999252319336 0,-22.358999252319336 C0,-22.358999252319336 -6.688000202178955,-10.777000427246094 -6.688000202178955,-10.777000427246094 C-6.688000202178955,-10.777000427246094 -13.375,0.8050000071525574 -13.375,0.8050000071525574 C-13.375,0.8050000071525574 -7.156000137329102,0.8050000071525574 -7.156000137329102,0.8050000071525574 C-7.156000137329102,0.8050000071525574 -7.156000137329102,22.358999252319336 -7.156000137329102,22.358999252319336 C-7.156000137329102,22.358999252319336 7.156000137329102,22.358999252319336 7.156000137329102,22.358999252319336 C7.156000137329102,22.358999252319336 7.156000137329102,0.8050000071525574 7.156000137329102,0.8050000071525574 C7.156000137329102,0.8050000071525574 13.375,0.8050000071525574 13.375,0.8050000071525574z"/></g></g><g transform="matrix(0.9999663829803467,-0.008201171644032001,0.008201171644032001,0.9999663829803467,-21.703086853027344,-3.195032835006714)" opacity="1" style="display: block;"><g opacity="1" transform="matrix(1,0,0,1,680.9149780273438,365.93701171875)"><path fill="rgb(252,200,145)" fill-opacity="1" d=" M-25.084768295288086,23.996688842773438 C-25.084768295288086,23.996688842773438 16.181230545043945,-35.129310607910156 16.181230545043945,-35.129310607910156 C16.181230545043945,-35.129310607910156 24.867536544799805,-38.33561706542969 18.15353775024414,-25.106616973876953 C18.15353775024414,-25.106616973876953 11.441230773925781,-11.879311561584473 11.441230773925781,-11.879311561584473 C11.441230773925781,-11.879311561584473 27.632230758666992,-0.25361722707748413 25.26323127746582,12.172382354736328 C22.89423179626465,24.599382400512695 -1.9574629068374634,32.62268829345703 -8.28946304321289,42.87268829345703 C-16.990463256835938,39.40768814086914 -25.084768295288086,23.996688842773438 -25.084768295288086,23.996688842773438z"/></g></g><g transform="matrix(0.9984977841377258,-0.054791856557130814,0.054791856557130814,0.9984977841377258,-39.17826461791992,28.115528106689453)" opacity="1" style="display: block;"><g opacity="1" transform="matrix(1,0,0,1,566.18701171875,442.93798828125)"><path fill="rgb(239,165,87)" fill-opacity="1" d=" M114.54644775390625,-35.43637466430664 C99.67564392089844,-5.188438415527344 70.315185546875,17.940462112426758 46.42723846435547,29.757619857788086 C24.711536407470703,40.502845764160156 7.132256031036377,48.513038635253906 -13.343999862670898,53.19300079345703 C-26.1737117767334,56.117042541503906 -35.409000396728516,57.89099884033203 -47.3489990234375,50.29999923706055 C-73.23100280761719,33.84600067138672 -96.08300018310547,5.4670000076293945 -106.93099975585938,-9.260000228881836 C-111.12699890136719,-14.95199966430664 -113.52799987792969,-18.608999252319336 -113.61499786376953,-18.740999221801758 C-113.4990005493164,-18.68000030517578 -111.19499969482422,-17.483999252319336 -107.19000244140625,-15.654000282287598 C-107.19000244140625,-15.654000282287598 -107.18299865722656,-15.654000282287598 -107.18299865722656,-15.654000282287598 C-107.18299865722656,-15.654000282287598 -67.73799896240234,-1.406000018119812 -67.73799896240234,-1.406000018119812 C-44.5260009765625,4.863999843597412 -19.072952270507812,-3.617213487625122 5.450499057769775,-12.013671875 C56.18228530883789,-29.27425765991211 89.31595611572266,-60.98271179199219 89.31595611572266,-60.98271179199219 C89.31595611572266,-60.98271179199219 106.35244750976562,-52.66963195800781 112.58344268798828,-40.2606315612793 C113.40044403076172,-38.63063049316406 114.07344818115234,-37.014373779296875 114.54644775390625,-35.43637466430664z"/></g><g opacity="1" transform="matrix(1,0,0,1,538.6589965820312,466.5830078125)"><path fill="rgb(208,132,51)" fill-opacity="1" d=" M73.88475036621094,6.050459384918213 C52.19956970214844,17.005783081054688 35.386024475097656,24.652400970458984 14.184000015258789,29.54800033569336 C2.148613929748535,32.32326889038086 -7.880000114440918,34.24700164794922 -19.81999969482422,26.655000686645508 C-45.702999114990234,10.20199966430664 -68.55500030517578,-18.179000854492188 -79.40299987792969,-32.904998779296875 C-79.55599975585938,-36.6609992980957 -79.66300201416016,-39.29800033569336 -79.66300201416016,-39.29800033569336 C-79.66300201416016,-39.29800033569336 -79.65599822998047,-39.29800033569336 -79.65599822998047,-39.29800033569336 C-79.65599822998047,-39.29800033569336 -40.21099853515625,-25.051000595092773 -40.21099853515625,-25.051000595092773 C-31.676000595092773,-11.668999671936035 -16.06800079345703,1.4889999628067017 3.615999937057495,6.039000034332275 C21.50200080871582,10.17300033569336 52.995750427246094,8.380459785461426 73.88475036621094,6.050459384918213z"/></g><g opacity="1" transform="matrix(1,0,0,1,599.3209838867188,453.00201416015625)"><path fill="rgb(234,155,71)" fill-opacity="1" d=" M81.41270446777344,-45.50037384033203 C58.86255645751953,1.438336968421936 1.7619999647140503,31.301000595092773 -46.47700119018555,43.12900161743164 C-59.19599914550781,46.24800109863281 -68.54199981689453,47.82699966430664 -80.48200225830078,40.236000061035156 C-55.292999267578125,42.94499969482422 -7.55610990524292,27.85985565185547 28.081754684448242,1.431294322013855 C58.3027229309082,-20.837451934814453 71.87370300292969,-36.433631896972656 79.44969940185547,-50.32463073730469 C80.2667007446289,-48.69463348388672 80.93970489501953,-47.07837677001953 81.41270446777344,-45.50037384033203z"/></g></g><g transform="matrix(0.999190092086792,-0.04023950546979904,0.04023950546979904,0.999190092086792,-23.014135360717773,20.339935302734375)" opacity="1" style="display: block;"><g opacity="1" transform="matrix(1,0,0,1,753.6129760742188,950.9030151367188)"><path fill="rgb(25,25,25)" fill-opacity="1" d=" M-43.486244201660156,-25.93390655517578 C-43.486244201660156,-25.93390655517578 -45.92913818359375,17.13303565979004 -45.92913818359375,17.13303565979004 C-45.92913818359375,17.13303565979004 -44.48613739013672,26.367034912109375 -36.19513702392578,30.76303482055664 C-27.90313720703125,35.15803527832031 63.94475555419922,21.00090789794922 63.94475555419922,21.00090789794922 C63.94475555419922,21.00090789794922 69.37075805664062,10.154448509216309 59.41027069091797,4.158528804779053 C49.289859771728516,-1.9743056297302246 0.35015738010406494,-11.269102096557617 0.35015738010406494,-11.269102096557617 C0.35015738010406494,-11.269102096557617 -3.130269765853882,-20.97911262512207 -3.130269765853882,-24.583112716674805 C-3.130269765853882,-28.188112258911133 -43.486244201660156,-25.93390655517578 -43.486244201660156,-25.93390655517578z"/></g></g><g transform="matrix(0.999190092086792,-0.04023950546979904,0.04023950546979904,0.999190092086792,-24.523529052734375,19.6151123046875)" opacity="1" style="display: block;"><g opacity="1" transform="matrix(1,0,0,1,607.64599609375,761.7069702148438)"><path fill="rgb(20,21,81)" fill-opacity="1" d=" M149.53411865234375,167.8198699951172 C149.53411865234375,167.8198699951172 136.46957397460938,175.04837036132812 108.75433349609375,174.5027313232422 C105.12100982666016,174.42811584472656 101.48980712890625,174.89163208007812 97.46283721923828,173.44873046875 C93.258056640625,171.97979736328125 66.7632064819336,-11.028209686279297 66.7632064819336,-11.028209686279297 C66.7632064819336,-11.028209686279297 25.399526596069336,-17.344106674194336 -27.984416961669922,-20.139009475708008 C-48.94442367553711,-21.239675521850586 -70.04218292236328,-21.787139892578125 -86.1851806640625,-20.546140670776367 C-90.86018371582031,-20.186140060424805 -95.85099792480469,-22.041000366210938 -100.41699981689453,-22.87299919128418 C-100.41999816894531,-22.875999450683594 -100.4229965209961,-22.875 -100.4229965209961,-22.875 C-152.2530059814453,-32.31399917602539 -195.28799438476562,-111.94000244140625 -195.28799438476562,-111.94000244140625 C-195.28799438476562,-111.94000244140625 -154.93499755859375,-129.343994140625 -154.93499755859375,-129.343994140625 C-154.93499755859375,-129.343994140625 -61.926998138427734,-169.45599365234375 -61.926998138427734,-169.45599365234375 C-61.926998138427734,-169.45599365234375 0.5165215730667114,-160.96023559570312 59.82352066040039,-144.2012481689453 C92.54251861572266,-134.96124267578125 106.37962341308594,-118.36978149414062 124.7126235961914,-100.03778076171875 C176.27862548828125,-48.47078323364258 149.53411865234375,167.8198699951172 149.53411865234375,167.8198699951172z"/></g><g opacity="1" transform="matrix(1,0,0,1,561.9829711914062,779.7919921875)"><path fill="rgb(16,17,65)" fill-opacity="1" d=" M154.41734313964844,156.4178466796875 C150.79833984375,155.87384033203125 147.14979553222656,156.74969482421875 143.1248321533203,155.3646240234375 C138.9362030029297,153.90933227539062 112.42620086669922,-29.113208770751953 112.42620086669922,-29.113208770751953 C112.42620086669922,-29.113208770751953 18.56229591369629,-39.51027297973633 -40.522178649902344,-38.63014221191406 C-98.46263885498047,-37.757965087890625 -149.625,-130.02499389648438 -149.625,-130.02499389648438 C-149.625,-130.02499389648438 -109.27200317382812,-147.42799377441406 -109.27200317382812,-147.42799377441406 C-80.23100280761719,-116.49500274658203 -13.784841537475586,-66.4334716796875 44.702178955078125,-60.18299102783203 C104.58406829833984,-53.77685546875 129.22726440429688,-48.103492736816406 129.22726440429688,-48.103492736816406 C129.22726440429688,-48.103492736816406 141.5538787841797,77.62567138671875 154.41734313964844,156.4178466796875z"/></g></g><g transform="matrix(0.9867526292800903,-0.16223224997520447,0.16223224997520447,0.9867526292800903,-87.12376403808594,112.13446807861328)" opacity="1" style="display: block;"><g opacity="1" transform="matrix(1,0,0,1,703.0360107421875,511.88299560546875)"><path fill="rgb(252,200,145)" fill-opacity="1" d=" M-36.768001556396484,-26.829999923706055 C-36.768001556396484,-26.829999923706055 0.24199999868869781,-38.04399871826172 18.503999710083008,-11.208000183105469 C36.768001556396484,15.628000259399414 30.57699966430664,36.1150016784668 26.5939998626709,36.65599822998047 C16.381999969482422,38.04499816894531 -1.5169999599456787,9.430000305175781 -2.2660000324249268,9.795000076293945 C-2.808000087738037,10.0600004196167 7.513999938964844,26.349000930786133 1.2120000123977661,29.934999465942383 C-7.053999900817871,34.64099884033203 -10.053000450134277,12.276000022888184 -19.533000946044922,3.7760000228881836 C-27.871000289916992,-3.700000047683716 -34.40299987792969,-1.6929999589920044 -34.40299987792969,-1.6929999589920044 C-34.40299987792969,-1.6929999589920044 -36.768001556396484,-26.829999923706055 -36.768001556396484,-26.829999923706055z"/></g></g><g transform="matrix(1,0,0,1,0,0)" opacity="1" style="display: block;"><g opacity="1" transform="matrix(1,0,0,1,813.7169799804688,710.4910278320312)"><path fill="rgb(25,25,25)" fill-opacity="1" d=" M-55.680999755859375,-21.875 C-55.680999755859375,-21.875 -46.77399826049805,15.104000091552734 -46.77399826049805,15.104000091552734 C-46.77399826049805,15.104000091552734 -44.84199905395508,23.309999465942383 -37.08100128173828,26.69300079345703 C-29.320999145507812,30.07699966430664 51.02199935913086,27.19700050354004 51.02199935913086,27.19700050354004 C51.02199935913086,27.19700050354004 55.68199920654297,17.85300064086914 46.04100036621094,13.227999687194824 C36.39799880981445,8.60200023651123 -4.2820000648498535,-13.586999893188477 -4.2820000648498535,-13.586999893188477 C-4.2820000648498535,-13.586999893188477 -13.777999877929688,-23.590999603271484 -14.026000022888184,-26.83300018310547 C-14.27400016784668,-30.076000213623047 -55.680999755859375,-21.875 -55.680999755859375,-21.875z"/></g></g><g transform="matrix(1,0,0,1,0,0)" opacity="1" style="display: block;"><g opacity="1" transform="matrix(1,0,0,1,588.125,673.8699951171875)"><path fill="rgb(25,25,25)" fill-opacity="1" d=" M75.4000015258789,-55.619998931884766 C47.5989990234375,21.44099998474121 1.159999966621399,46.231998443603516 -12.753000259399414,55.52799987792969 C-44.527000427246094,65.20500183105469 -48.994998931884766,65.94000244140625 -67.0250015258789,63.03799819946289 C-71.65399932861328,62.292999267578125 -76.33000183105469,63.11199951171875 -80.89600372314453,62.27899932861328 C-80.89900207519531,62.2760009765625 -80.9020004272461,62.2760009765625 -80.9020004272461,62.2760009765625 C-80.9020004272461,62.2760009765625 -62.68600082397461,-8.468999862670898 -62.68600082397461,-8.468999862670898 C-62.68600082397461,-8.468999862670898 -21.069000244140625,-52.89400100708008 75.4000015258789,-55.619998931884766z"/></g><g opacity="1" transform="matrix(1,0,0,1,594.1170043945312,616.9180297851562)"><path fill="rgb(20,21,81)" fill-opacity="1" d=" M209.93499755859375,66.51899719238281 C209.93499755859375,66.51899719238281 171.28700256347656,84.92400360107422 171.28700256347656,84.92400360107422 C171.28700256347656,84.92400360107422 167.8780059814453,86.5459976196289 167.8780059814453,86.5459976196289 C142.39100646972656,70.77999877929688 111.40599822998047,28.042999267578125 80.16100311279297,-15.989999771118164 C80.16100311279297,-15.989999771118164 21.222000122070312,100.88700103759766 -69.46199798583984,117.77899932861328 C-123.18099975585938,127.78800201416016 -162.5489959716797,90.37300109863281 -185.718994140625,58.20800018310547 C-199.77200317382812,38.70000076293945 -207.86500549316406,21.121999740600586 -209.58900451660156,17.226999282836914 C-209.81900024414062,16.702999114990234 -209.93600463867188,16.427000045776367 -209.93600463867188,16.427000045776367 C-209.93600463867188,16.427000045776367 -204.5019989013672,14.373000144958496 -204.5019989013672,14.373000144958496 C-204.5019989013672,14.373000144958496 -180.82000732421875,5.420000076293945 -180.82000732421875,5.420000076293945 C-180.82000732421875,5.420000076293945 -76.39299774169922,-34.060001373291016 -76.39299774169922,-34.060001373291016 C-76.39299774169922,-34.060001373291016 -64.12899780273438,-38.698001861572266 -64.12899780273438,-38.698001861572266 C-64.12899780273438,-38.698001861572266 6.671000003814697,-82.00499725341797 69.14399719238281,-103.82499694824219 C137.7570037841797,-127.78900146484375 209.93499755859375,66.51899719238281 209.93499755859375,66.51899719238281z"/></g><g opacity="1" transform="matrix(1,0,0,1,574.7930297851562,659.7589721679688)"><path fill="rgb(16,17,65)" fill-opacity="1" d=" M190.61199951171875,42.08300018310547 C190.61199951171875,42.08300018310547 187.2030029296875,43.70600128173828 187.2030029296875,43.70600128173828 C161.71499633789062,27.93899917602539 130.72999572753906,-14.79800033569336 99.48500061035156,-58.83100128173828 C99.48500061035156,-58.83100128173828 40.547000885009766,58.047000885009766 -50.13800048828125,74.93800354003906 C-140.82400512695312,91.83200073242188 -190.61099243164062,-26.413000106811523 -190.61099243164062,-26.413000106811523 C-190.61099243164062,-26.413000106811523 -161.49400329589844,-37.41999816894531 -161.49400329589844,-37.41999816894531 C-144.6750030517578,-0.6710000038146973 -113.60199737548828,54.875 -76.60900115966797,62.92399978637695 C-35.055999755859375,71.96499633789062 42.04499816894531,-8.529999732971191 79.02100372314453,-50.61399841308594 C91.85700225830078,-65.2229995727539 104.2770004272461,-91.83200073242188 104.2770004272461,-91.83200073242188 C104.2770004272461,-91.83200073242188 116.48999786376953,-59.95899963378906 126.19000244140625,-43.790000915527344 C132.8979949951172,-32.61199951171875 168.98399353027344,14.237000465393066 190.61199951171875,42.08300018310547z"/></g></g><g transform="matrix(0.9989707469940186,-0.045359522104263306,0.045359522104263306,0.9989707469940186,-35.03375244140625,23.98040008544922)" opacity="1" style="display: block;"><g opacity="1" transform="matrix(1,0,0,1,444.06298828125,378.5199890136719)"><path fill="rgb(252,200,145)" fill-opacity="1" d=" M34.31999969482422,12.222000122070312 C31.214000701904297,27.17799949645996 11.982000350952148,26.93400001525879 11.654999732971191,26.93000030517578 C11.652999877929688,26.930999755859375 11.652000427246094,26.927000045776367 11.652000427246094,26.927000045776367 C11.652000427246094,26.927000045776367 11.633000373840332,32.3650016784668 11.633000373840332,32.3650016784668 C11.633000373840332,32.3650016784668 11.569999694824219,51.29199981689453 11.569999694824219,51.29199981689453 C11.569999694824219,51.29199981689453 -29.05900001525879,56.45800018310547 -29.05900001525879,56.45800018310547 C-29.05900001525879,56.45800018310547 -25.61199951171875,41.439998626708984 -30.503000259399414,17.010000228881836 C-37.3390007019043,-17.14900016784668 -37.448001861572266,-49.277000427246094 -6.909999847412109,-52.9739990234375 C21.868000030517578,-56.45899963378906 37.446998596191406,-2.861999988555908 34.31999969482422,12.222000122070312z"/></g><g opacity="1" transform="matrix(1,0,0,1,436.1080017089844,353.3869934082031)"><path fill="rgb(20,21,81)" fill-opacity="1" d=" M-24.885000228881836,37.775001525878906 C-21.525999069213867,41.34199905395508 -10.862000465393066,41.84600067138672 -4.559000015258789,37.95899963378906 C1.7430000305175781,34.073001861572266 -5.309000015258789,19.448999404907227 -5.309000015258789,19.448999404907227 C-5.309000015258789,19.448999404907227 -1.6100000143051147,7.208000183105469 3.2269999980926514,10.630999565124512 C8.062999725341797,14.053999900817871 7.460999965667725,22.552000045776367 9.607000350952148,21.68600082397461 C11.753000259399414,20.81999969482422 13.734000205993652,20.020999908447266 13.734000205993652,20.020999908447266 C13.734000205993652,20.020999908447266 10.298999786376953,6.2729997634887695 10.298999786376953,6.2729997634887695 C10.298999786376953,6.2729997634887695 20.479000091552734,-1.0479999780654907 20.094999313354492,-8.460000038146973 C20.094999313354492,-8.460000038146973 31.625,-10.807999610900879 34.03799819946289,-21.95599937438965 C28.917999267578125,-31.79199981689453 10.79699993133545,-33.887001037597656 5.443999767303467,-32.87900161743164 C-2.7809998989105225,-41.84600067138672 -33.40999984741211,-23.422000885009766 -29.80299949645996,-8.100000381469727 C-34.0369987487793,-2.686000108718872 -32.44200134277344,29.75200080871582 -24.885000228881836,37.775001525878906z"/></g><g opacity="1" transform="matrix(1,0,0,1,448.00299072265625,403.6310119628906)"><path fill="rgb(232,172,109)" fill-opacity="1" d=" M7.711999893188477,1.815999984741211 C7.711999893188477,1.815999984741211 7.693999767303467,7.252999782562256 7.693999767303467,7.252999782562256 C1.9019999504089355,6.190000057220459 -5.72599983215332,2.8469998836517334 -7.711999893188477,-7.252999782562256 C-7.711999893188477,-7.252999782562256 -1.753999948501587,0.4819999933242798 7.711999893188477,1.815999984741211z"/></g></g><g transform="matrix(0.9970234632492065,-0.07709862291812897,0.07709862291812897,0.9970234632492065,-47.9801025390625,38.8367919921875)" opacity="1" style="display: block;"><g opacity="1" transform="matrix(1,0,0,1,0,0)"/><g opacity="1" transform="matrix(1,0,0,1,465.5660095214844,616.1849975585938)"><path fill="rgb(25,25,25)" fill-opacity="1" d=" M79.98699951171875,-39.05400085449219 C71.03800201416016,-4.857999801635742 -31.84000015258789,49.915000915527344 -57.167999267578125,61.62799835205078 C-71.22100067138672,42.11899948120117 -79.31400299072266,24.54199981689453 -81.03800201416016,20.645999908447266 C-79.71600341796875,19.900999069213867 -78.00199890136719,18.93600082397461 -75.95099639892578,17.79199981689453 C-48.516998291015625,2.496000051498413 65.69499969482422,-61.62799835205078 78.87200164794922,-47.66999816894531 C80.572998046875,-45.874000549316406 81.03700256347656,-43.069000244140625 79.98699951171875,-39.05400085449219z"/></g><g opacity="1" transform="matrix(1,0,0,1,447.947998046875,535.1099853515625)"><path fill="rgb(239,165,87)" fill-opacity="1" d=" M97.3280029296875,34.005001068115234 C96.9489974975586,34.590999603271484 96.5459976196289,35.18199920654297 96.12100219726562,35.77199935913086 C68.97599792480469,73.56800079345703 -51.750999450683594,124.01699829101562 -51.750999450683594,124.01699829101562 C-51.750999450683594,124.01699829101562 -78.87899780273438,104.01599884033203 -86.88200378417969,23.555999755859375 C-97.3280029296875,-81.4729995727539 -36.20600128173828,-118.38500213623047 -36.20600128173828,-118.38500213623047 C-36.20600128173828,-118.38500213623047 -29.981000900268555,-124.01699829101562 8.694000244140625,-118.23699951171875 C41.073001861572266,-113.39900207519531 81.36299896240234,-9.946999549865723 93.61699676513672,23.601999282836914 C96.00199890136719,30.124000549316406 97.3280029296875,34.005001068115234 97.3280029296875,34.005001068115234z"/></g></g><g transform="matrix(0.9998002052307129,-0.019989049062132835,0.019989049062132835,0.9998002052307129,-25.02850341796875,10.869140625)" opacity="1" style="display: block;"><g opacity="1" transform="matrix(1,0,0,1,499.9230041503906,549.1699829101562)"><path fill="rgb(208,132,51)" fill-opacity="1" d=" M44.145999908447266,21.711999893188477 C35.70600128173828,24.628000259399414 18.795000076293945,24.375 -2.936000108718872,16.44300079345703 C-32.03900146484375,5.818999767303467 -44.85300064086914,-18.875 -44.85300064086914,-18.875 C-44.85300064086914,-18.875 26.899999618530273,-12.475000381469727 26.899999618530273,-12.475000381469727 C26.899999618530273,-12.475000381469727 41.641998291015625,9.541999816894531 41.641998291015625,9.541999816894531 C44.027000427246094,16.06399917602539 44.57099914550781,21.121999740600586 44.145999908447266,21.711999893188477z"/></g><g opacity="1" transform="matrix(1,0,0,1,567.18701171875,503.9389953613281)"><path fill="rgb(239,165,87)" fill-opacity="1" d=" M113.36599731445312,12.824999809265137 C88.31300354003906,24.56100082397461 58.5629997253418,38.56100082397461 21.393999099731445,53.715999603271484 C-39.6870002746582,79.31099700927734 -88.51599884033203,43.10200119018555 -107.052001953125,30.332000732421875 C-110.62999725341797,27.867000579833984 -112.61599731445312,26.29199981689453 -112.61599731445312,26.29199981689453 C-112.61599731445312,26.29199981689453 -97.23200225830078,-79.74500274658203 -97.23200225830078,-79.74500274658203 C-68.34200286865234,-55.810001373291016 -62.70500183105469,-42.654998779296875 -31.506000518798828,-10.133000373840332 C10.095000267028809,-6.867000102996826 105.48799896240234,-30.099000930786133 105.48799896240234,-30.099000930786133 C105.48799896240234,-30.099000930786133 110.97000122070312,0.8019999861717224 110.97000122070312,0.8019999861717224 C110.97000122070312,0.8019999861717224 113.36599731445312,12.824999809265137 113.36599731445312,12.824999809265137z"/></g><g opacity="1" transform="matrix(1,0,0,1,569.968994140625,544.2119750976562)"><path fill="rgb(234,155,71)" fill-opacity="1" d=" M110.58399963378906,-27.448999404907227 C85.28099822998047,-15.588000297546387 55.28099822998047,-0.3370000123977661 18.61199951171875,13.817999839782715 C-42.09400177001953,38.53799819946289 -91.2979965209961,2.828000068664551 -109.83399963378906,-9.942000389099121 C-102.24600219726562,-9.258000373840332 -91.28500366210938,-7.242000102996826 -75.48200225830078,-2.7060000896453857 C-28.825000762939453,10.692000389099121 38.159000396728516,-9.173999786376953 71.88300323486328,-24.417999267578125 C88.48500061035156,-31.92300033569336 100.38600158691406,-36.625999450683594 108.18800354003906,-39.47100067138672 C108.18800354003906,-39.47100067138672 110.58399963378906,-27.448999404907227 110.58399963378906,-27.448999404907227z"/></g></g><g transform="matrix(1,0,0,1,0,0)" opacity="1" style="display: block;"><g opacity="1" transform="matrix(1,0,0,1,679.0700073242188,564.1480102539062)"><path fill="rgb(209,209,218)" fill-opacity="1" d=" M346.1340026855469,197.9199981689453 C346.1340026855469,197.9199981689453 -346.1340026855469,197.9199981689453 -346.1340026855469,197.9199981689453 C-346.1340026855469,197.9199981689453 -346.1340026855469,-197.9199981689453 -346.1340026855469,-197.9199981689453 C-346.1340026855469,-197.9199981689453 -323.65899658203125,-197.9199981689453 -323.65899658203125,-197.9199981689453 C-323.65899658203125,-197.9199981689453 -323.65899658203125,175.44500732421875 -323.65899658203125,175.44500732421875 C-323.65899658203125,175.44500732421875 346.1340026855469,175.44500732421875 346.1340026855469,175.44500732421875 C346.1340026855469,175.44500732421875 346.1340026855469,197.9199981689453 346.1340026855469,197.9199981689453z"/></g></g></g></g></svg>